<?xml version="1.0" encoding="UTF-8"?>
<!DOCTYPE svg PUBLIC "-//W3C//DTD SVG 1.1//EN" "http://www.w3.org/Graphics/SVG/1.1/DTD/svg11.dtd">
<!-- Creator: CorelDRAW -->
<svg xmlns="http://www.w3.org/2000/svg" xml:space="preserve" width="49.659mm" height="49.6588mm" version="1.1" style="shape-rendering:geometricPrecision; text-rendering:geometricPrecision; image-rendering:optimizeQuality; fill-rule:evenodd; clip-rule:evenodd"
viewBox="0 0 3184.92 3184.91"
 xmlns:xlink="http://www.w3.org/1999/xlink"
 xmlns:xodm="http://www.corel.com/coreldraw/odm/2003">
 <defs>
  <style type="text/css">
   <![CDATA[
    .fil0 {fill:#35AB62}
    .fil5 {fill:#EF5721;fill-rule:nonzero}
    .fil6 {fill:#F2F2F2;fill-rule:nonzero}
    .fil2 {fill:#FFE6B5;fill-rule:nonzero}
    .fil4 {fill:white;fill-rule:nonzero}
    .fil1 {fill:#333333;fill-rule:nonzero;fill-opacity:0.368627}
    .fil3 {fill:#FFE6B5;fill-rule:nonzero}
   ]]>
  </style>
 </defs>
 <g id="OBJECTS">
  <metadata id="CorelCorpID_0Corel-Layer"/>
  <rect class="fil0" width="3184.92" height="3184.91"/>
  <g id="_2640915961552">
   <path class="fil1" d="M2442.3 2339.49l-754.39 -754.36c23.91,-27.96 44.46,-57.76 61.34,-89.09 0,0.06 0.04,0.11 0.08,0.17 0.4,-0.7 0.71,-1.44 1.06,-2.14 1.5,-2.84 2.87,-5.73 4.33,-8.59 5.57,-11 10.78,-22.21 15.6,-33.64 1.15,-2.78 2.43,-5.52 3.54,-8.31 5.26,-13.12 9.9,-26.56 14.1,-40.2 0.92,-3.1 1.76,-6.2 2.65,-9.31 3.85,-13.44 7.29,-27.05 9.99,-40.93 0.18,-0.69 0.35,-1.37 0.49,-2.07 2.69,-14.06 4.64,-28.38 6.19,-42.84 0.4,-3.67 0.71,-7.36 1.06,-11.04 1.1,-13.63 1.9,-27.35 1.94,-41.27 0,-1.82 -0.04,-3.63 -0.04,-5.45 -0.09,-13.75 -0.8,-27.34 -1.94,-40.81 -0.44,-4.8 -1.06,-9.58 -1.64,-14.37 -1.19,-10.33 -2.65,-20.56 -4.42,-30.69 -0.89,-4.95 -1.77,-9.86 -2.78,-14.79 -2.34,-11.37 -5.12,-22.58 -8.22,-33.65 -0.88,-3.24 -1.59,-6.51 -2.56,-9.74 -0.13,-0.46 -0.22,-0.95 -0.4,-1.41 -0.04,-0.01 -0.09,-0.03 -0.13,-0.04 -23.6,-77.79 -65.98,-151.1 -127.49,-212.6 -36.24,-36.21 -76.58,-65.66 -119.49,-88.73 0.04,-0.03 0.04,-0.05 0.09,-0.07 -0.44,-0.24 -0.93,-0.46 -1.37,-0.69 -3.41,-1.82 -6.85,-3.42 -10.29,-5.14 -10.26,-5.21 -20.73,-10.06 -31.38,-14.57 -3.31,-1.39 -6.54,-2.9 -9.85,-4.21 -12.86,-5.12 -25.98,-9.65 -39.28,-13.74 -3.45,-1.05 -6.85,-2 -10.3,-2.98 -12.9,-3.64 -25.89,-6.91 -39.19,-9.56 -1.15,-0.24 -2.35,-0.56 -3.54,-0.8 -13.87,-2.66 -28.01,-4.57 -42.25,-6.1 -3.89,-0.4 -7.73,-0.77 -11.62,-1.09 -13.3,-1.12 -26.69,-1.86 -40.26,-1.92 -2.3,-0.01 -4.55,0.04 -6.86,0.06 -13.52,0.1 -26.91,0.78 -40.17,1.91 -4.82,0.42 -9.54,1.06 -14.36,1.62 -10.38,1.19 -20.72,2.66 -30.93,4.46 -4.82,0.86 -9.63,1.73 -14.45,2.73 -11.54,2.38 -22.85,5.17 -34.08,8.32 -3.14,0.87 -6.27,1.56 -9.41,2.49 -0.67,0.2 -1.33,0.33 -1.99,0.53 -0.04,0.07 -0.04,0.13 -0.09,0.19 -77.51,23.65 -150.6,65.96 -211.94,127.28 -36.37,36.39 -65.93,76.98 -89.08,120.1 0,-0.06 -0.04,-0.1 -0.09,-0.15 -0.35,0.67 -0.66,1.37 -1.01,2.05 -1.11,2.11 -2.08,4.27 -3.18,6.39 -6.1,11.84 -11.71,23.96 -16.84,36.31 -0.93,2.23 -1.95,4.42 -2.87,6.66 -5.44,13.62 -10.3,27.56 -14.58,41.73 -0.66,2.3 -1.33,4.6 -1.99,6.91 -8.22,28.6 -14.01,58.19 -17.15,88.6 -0.31,2.71 -0.53,5.39 -0.8,8.09 -1.28,14.8 -2.16,29.71 -2.16,44.84 0,15.35 0.89,30.49 2.21,45.49 0.31,3.56 0.84,7.08 1.19,10.63 1.33,11.85 3.01,23.57 5.09,35.15 0.71,3.82 1.37,7.6 2.16,11.4 2.66,13.12 5.79,26.06 9.46,38.8 0.49,1.7 0.84,3.41 1.37,5.11 0.31,1.03 0.53,2.09 0.84,3.1 0.09,0.03 0.18,0.06 0.27,0.09 23.69,77.44 65.93,150.42 127.18,211.69 36.33,36.31 76.81,65.82 119.85,88.94 -0.04,0.02 -0.13,0.06 -0.18,0.11 0.84,0.44 1.73,0.84 2.57,1.28 1.81,0.95 3.67,1.81 5.48,2.74 12.29,6.34 24.88,12.17 37.7,17.5 1.85,0.77 3.71,1.61 5.57,2.36 13.83,5.57 27.92,10.47 42.34,14.83 2.12,0.62 4.24,1.21 6.36,1.81 28.64,8.29 58.33,14.1 88.82,17.24 2.78,0.28 5.52,0.55 8.31,0.8 14.76,1.28 29.61,2.16 44.68,2.16 15.29,0 30.32,-0.89 45.25,-2.19 3.8,-0.33 7.51,-0.86 11.27,-1.26 11.62,-1.28 23.11,-2.94 34.47,-4.97 3.93,-0.73 7.91,-1.44 11.85,-2.23 12.95,-2.66 25.76,-5.77 38.4,-9.37 1.77,-0.53 3.63,-0.9 5.44,-1.46 0.8,-0.22 1.64,-0.4 2.43,-0.64 0,-0.07 0.04,-0.15 0.04,-0.22 65.44,-19.91 127.49,-53.44 182.2,-100.14l39.77 39.74 714.61 714.61 57.45 -57.45z"/>
   <g>
    <polygon class="fil2" points="2397.05,2384.75 2339.6,2442.19 1316.14,1418.77 1373.59,1361.32 "/>
    <polygon class="fil3" points="1682.44,1670.14 1624.99,1727.6 1316.14,1418.77 1373.59,1361.32 "/>
    <path class="fil4" d="M1615.4 937.57c199.65,199.66 199.65,523.34 0,722.98 -199.65,199.64 -523.35,199.64 -723,0 -199.61,-199.65 -199.61,-523.32 0,-722.98 199.65,-199.65 523.36,-199.65 723,0z"/>
    <g>
     <path class="fil5" d="M1104.42 810.1c-25.63,86.3 -53.87,288.73 149.19,489.26l-0.04 -0.01c0,0.01 0,0.01 0,0.01 -111.76,23.55 -361.17,-65.97 -450.35,-241.85 -38.62,71.94 -60.58,154.21 -60.58,241.58 0,52.09 7.82,102.36 22.32,149.7 86.62,25.55 288.56,53.21 488.66,-149.38 0,0.01 0,0.01 0,0.01l-0.04 0.01c0,0.01 0.04,0 0.04,0 23.51,111.7 -65.89,360.87 -241.54,450.18 71.99,38.73 154.31,60.72 241.81,60.72 51.88,0 101.9,-7.75 149.1,-22.12 25.55,-86.57 53.34,-288.61 -149.32,-488.77l0 -0.01 0 0.01 0 -0.01c111.81,-23.56 361.35,66.03 450.44,242.03 38.89,-72.13 61.03,-154.66 61.03,-242.35 0,-51.79 -7.73,-101.77 -22.09,-148.89 -86.21,-25.6 -288.74,-54 -489.37,149.15l0 -0.01 0 0.01c-23.55,-111.87 66.16,-361.65 242.34,-450.59 -72.08,-38.83 -154.54,-60.88 -242.12,-60.88 -52.01,0 -102.17,7.79 -149.46,22.22zm149.19 489.29l0 0 0 0z"/>
    </g>
   </g>
   <g>
    <path class="fil6" d="M1615.4 1660.55c199.65,-199.65 199.65,-523.32 0,-722.98 -2.47,-2.46 -5.17,-4.52 -7.64,-6.92 57.1,276.56 32.88,710.46 -643.64,789.18 199.17,137.48 474.03,117.98 651.28,-59.27z"/>
   </g>
  </g>
 </g>
</svg>
