<?xml version="1.0" encoding="UTF-8"?>
<!DOCTYPE svg PUBLIC "-//W3C//DTD SVG 1.1//EN" "http://www.w3.org/Graphics/SVG/1.1/DTD/svg11.dtd">
<!-- Creator: CorelDRAW -->
<svg xmlns="http://www.w3.org/2000/svg" xml:space="preserve" width="49.659mm" height="49.6588mm" version="1.1" style="shape-rendering:geometricPrecision; text-rendering:geometricPrecision; image-rendering:optimizeQuality; fill-rule:evenodd; clip-rule:evenodd"
viewBox="0 0 5173.62 5173.6"
 xmlns:xlink="http://www.w3.org/1999/xlink"
 xmlns:xodm="http://www.corel.com/coreldraw/odm/2003">
 <defs>
  <style type="text/css">
   <![CDATA[
    .str0 {stroke:#4D4D4D;stroke-width:73.51;stroke-linecap:round;stroke-linejoin:round;stroke-miterlimit:10}
    .fil6 {fill:none;fill-rule:nonzero}
    .fil0 {fill:#9FB35D}
    .fil3 {fill:#343638;fill-rule:nonzero}
    .fil7 {fill:#666666;fill-rule:nonzero}
    .fil4 {fill:gray;fill-rule:nonzero}
    .fil5 {fill:white;fill-rule:nonzero}
    .fil2 {fill:#333333;fill-rule:nonzero;fill-opacity:0.321569}
    .fil1 {fill:#666666;fill-rule:nonzero;fill-opacity:0.321569}
   ]]>
  </style>
 </defs>
 <g id="OBJECTS">
  <metadata id="CorelCorpID_0Corel-Layer"/>
  <g id="_2640911152752">
   <rect class="fil0" width="5173.62" height="5173.6"/>
   <g>
    <path class="fil1" d="M3629.6 3824.03l0 -1623.25c0,-539.3 -437.23,-976.36 -976.4,-976.36 -539.14,0 -976.34,437.06 -976.34,976.36l0 1623.25 1952.74 0z"/>
    <polygon class="fil2" points="3918.89,4011.29 1387.49,4011.29 1387.49,3683.99 3918.89,3683.99 "/>
    <path class="fil3" d="M3496.81 3761.94l0 -1623.24c0,-539.28 -437.17,-976.38 -976.34,-976.38 -539.18,0 -976.37,437.1 -976.37,976.38l0 1623.24 1952.71 0z"/>
    <polygon class="fil4" points="3786.16,3949.19 1254.73,3949.19 1254.73,3621.93 3786.16,3621.93 "/>
    <path class="fil5" d="M2067.17 2322.22l0 -495.56 210.74 0c52.96,0 91.48,4.5 115.48,13.38 24.11,8.89 43.26,24.69 57.68,47.41 14.42,22.84 21.68,48.8 21.68,78.1 0,37.26 -10.84,67.94 -32.64,92.17 -21.81,24.22 -54.33,39.44 -97.7,45.79 21.57,12.57 39.33,26.42 53.29,41.53 14.08,15.12 32.99,41.99 56.76,80.52l60.44 96.66 -119.61 0 -71.75 -108.2c-25.72,-38.41 -43.37,-62.63 -52.95,-72.67 -9.46,-9.92 -19.5,-16.85 -30.11,-20.53 -10.73,-3.69 -27.57,-5.53 -50.64,-5.53l-20.31 0 0 206.94 -100.35 0zm100.35 -285.85l74.06 0c47.99,0 77.86,-2.07 89.86,-6.12 11.88,-4.03 21.34,-11.07 28.03,-20.99 6.81,-9.92 10.16,-22.38 10.16,-37.26 0,-16.73 -4.5,-30.11 -13.39,-40.49 -8.88,-10.27 -21.45,-16.73 -37.6,-19.39 -8.19,-1.15 -32.53,-1.73 -73.02,-1.73l-78.1 0 0 125.97z"/>
    <polygon id="_1" class="fil5" points="2563.53,2322.22 2563.53,1826.66 2663.88,1826.66 2663.88,2322.22 "/>
    <path id="_2" class="fil5" d="M2759.28 2322.22l0 -495.56 160.45 0c60.79,0 100.36,2.42 118.81,7.39 28.38,7.49 52.14,23.64 71.29,48.56 19.15,24.92 28.72,57.1 28.72,96.55 0,30.45 -5.54,55.95 -16.49,76.71 -11.07,20.76 -25.04,37.04 -42,48.91 -16.95,11.76 -34.26,19.61 -51.79,23.42 -23.88,4.73 -58.37,7.15 -103.59,7.15l-65.06 0 0 186.87 -100.35 0zm100.35 -411.81l0 141.2 54.57 0c39.33,0 65.52,-2.66 78.78,-7.84 13.26,-5.19 23.65,-13.27 31.14,-24.46 7.5,-11.06 11.3,-23.87 11.3,-38.64 0,-18.11 -5.3,-32.98 -15.8,-44.76 -10.61,-11.76 -23.87,-19.15 -40.14,-22.15 -11.88,-2.19 -35.76,-3.34 -71.75,-3.34l-48.1 0z"/>
    <line class="fil6 str0" x1="3348.71" y1="3525.96" x2="3348.71" y2= "2146.48" />
    <path class="fil6 str0" d="M3348.71 2146.48c0,-458.3 -371.55,-829.75 -829.74,-829.75"/>
    <path class="fil6 str0" d="M2518.97 1316.73c-458.18,0 -829.72,371.45 -829.72,829.75"/>
    <polyline class="fil6 str0" points="1689.24,2146.48 1689.24,3525.96 3348.71,3525.96 "/>
    <polygon class="fil7" points="2741.27,2718.03 2589.24,2718.03 2589.24,2566.7 2453.16,2566.7 2453.16,2718.03 2300.34,2718.03 2300.34,2854.13 2453.16,2854.13 2453.16,3257.24 2589.24,3257.24 2589.24,2854.13 2741.27,2854.13 "/>
   </g>
  </g>
 </g>
</svg>
