<?xml version="1.0" encoding="UTF-8"?>
<!DOCTYPE svg PUBLIC "-//W3C//DTD SVG 1.1//EN" "http://www.w3.org/Graphics/SVG/1.1/DTD/svg11.dtd">
<!-- Creator: CorelDRAW -->
<svg xmlns="http://www.w3.org/2000/svg" xml:space="preserve" width="49.659mm" height="49.6588mm" version="1.1" style="shape-rendering:geometricPrecision; text-rendering:geometricPrecision; image-rendering:optimizeQuality; fill-rule:evenodd; clip-rule:evenodd"
viewBox="0 0 1474.78 1474.77"
 xmlns:xlink="http://www.w3.org/1999/xlink"
 xmlns:xodm="http://www.corel.com/coreldraw/odm/2003">
 <defs>
  <style type="text/css">
   <![CDATA[
    .str0 {stroke:white;stroke-width:10.48;stroke-miterlimit:10}
    .fil4 {fill:none;fill-rule:nonzero}
    .fil0 {fill:#1F989C}
    .fil2 {fill:#333333;fill-rule:nonzero}
    .fil3 {fill:white;fill-rule:nonzero}
    .fil1 {fill:#333333;fill-rule:nonzero;fill-opacity:0.149020}
   ]]>
  </style>
 </defs>
 <g id="OBJECTS">
  <metadata id="CorelCorpID_0Corel-Layer"/>
  <rect class="fil0" width="1474.78" height="1474.77"/>
  <g id="_2640780542096">
   <g>
    <g>
     <path class="fil1" d="M1021.13 773.14c0,138.3 -120.13,250.41 -268.29,250.41 -148.18,0 -268.31,-112.12 -268.31,-250.41 0,-138.3 120.13,-250.41 268.31,-250.41 148.17,0 268.29,112.11 268.29,250.41z"/>
     <g>
      <polygon class="fil1" points="935.11,946.53 1060.33,915.01 1162.54,981.45 1185.54,951.64 1067.14,882.65 936.82,918.42 "/>
      <polygon class="fil1" points="996.44,857.09 1104.62,810.24 1230.97,877.25 1243.46,828.99 1111.44,769.36 1001.55,822.17 "/>
      <polygon class="fil1" points="984.51,768.22 1117.4,676.23 1248.57,760.85 1259.36,708.03 1117.4,622.86 966.35,737.56 "/>
      <polygon class="fil1" points="959.53,671.69 1108.31,538.81 1257.09,600.13 1266.17,549.03 1099.23,480.89 923.19,653.52 "/>
      <polygon class="fil1" points="570.56,946.53 445.34,915.01 343.13,981.45 320.13,951.64 438.52,882.65 568.85,918.42 "/>
      <polygon class="fil1" points="509.22,857.09 401.04,810.24 274.7,877.25 262.21,828.99 394.23,769.36 504.11,822.17 "/>
      <polygon class="fil1" points="521.15,768.22 388.26,676.23 257.1,760.85 246.31,708.03 388.28,622.86 539.32,737.56 "/>
      <polygon class="fil1" points="546.13,671.69 397.35,538.81 248.58,600.13 239.49,549.03 406.44,480.89 582.48,653.52 "/>
     </g>
    </g>
    <path class="fil2" d="M987.06 739.07c0,138.3 -120.13,250.41 -268.31,250.41 -148.17,0 -268.3,-112.11 -268.3,-250.41 0,-138.3 120.13,-250.41 268.3,-250.41 148.18,0 268.31,112.11 268.31,250.41z"/>
    <g>
     <path class="fil2" d="M901.04 912.46l117.49 -29.58c4.93,-1.24 10.15,-0.37 14.42,2.41l81.4 52.91c7.98,5.19 18.61,3.38 24.42,-4.15 6.73,-8.73 4.26,-21.39 -5.27,-26.95l-93.79 -54.65c-4.25,-2.47 -9.3,-3.13 -14.04,-1.83l-122.92 33.74 -1.71 28.12z"/>
     <path class="fil2" d="M962.37 823.02l97.74 -42.33c6.6,-2.86 14.13,-2.56 20.47,0.81l89.85 47.65c13.49,7.15 30.13,-0.18 33.96,-14.96 2.88,-11.14 -2.67,-22.73 -13.16,-27.47l-103.84 -46.9c-6.36,-2.87 -13.68,-2.78 -19.97,0.24l-99.95 48.05 -5.11 34.92z"/>
     <path class="fil2" d="M950.44 734.15l119.24 -82.55c8.26,-5.72 19.15,-5.89 27.59,-0.45l86.7 55.92c14.68,9.47 34.3,1.22 37.79,-15.9 2.11,-10.32 -2.52,-20.84 -11.55,-26.26l-112.48 -67.49c-8.71,-5.23 -19.72,-4.62 -27.8,1.51l-137.66 104.54 18.17 30.66z"/>
     <path class="fil2" d="M925.46 637.62l136.94 -122.3c7.24,-6.47 17.55,-8.23 26.52,-4.53l105.02 43.3c14.95,6.16 31.76,-3.07 34.58,-18.98 2.09,-11.75 -4.31,-23.37 -15.36,-27.87l-132.6 -54.12c-9.35,-3.82 -20.08,-1.71 -27.3,5.36l-164.15 160.98 36.34 18.17z"/>
     <path class="fil2" d="M536.48 912.46l-117.48 -29.58c-4.93,-1.24 -10.15,-0.37 -14.42,2.41l-81.4 52.91c-7.98,5.19 -18.61,3.38 -24.42,-4.15 -6.73,-8.73 -4.26,-21.39 5.27,-26.95l93.79 -54.65c4.25,-2.47 9.3,-3.13 14.04,-1.83l122.92 33.74 1.7 28.12z"/>
     <path class="fil2" d="M475.15 823.02l-97.74 -42.33c-6.6,-2.86 -14.13,-2.56 -20.47,0.81l-89.85 47.65c-13.5,7.15 -30.13,-0.18 -33.96,-14.96 -2.88,-11.14 2.67,-22.73 13.15,-27.47l103.85 -46.9c6.36,-2.87 13.68,-2.78 19.97,0.24l99.95 48.05 5.11 34.92z"/>
     <path class="fil2" d="M487.08 734.15l-119.24 -82.55c-8.26,-5.72 -19.15,-5.89 -27.6,-0.45l-86.7 55.92c-14.68,9.47 -34.3,1.22 -37.79,-15.9 -2.11,-10.32 2.52,-20.84 11.55,-26.26l112.48 -67.49c8.7,-5.23 19.7,-4.62 27.8,1.51l137.66 104.54 -18.17 30.66z"/>
     <path class="fil2" d="M512.06 637.62l-136.94 -122.3c-7.24,-6.47 -17.55,-8.23 -26.52,-4.53l-105.02 43.3c-14.95,6.16 -31.76,-3.07 -34.58,-18.98 -2.09,-11.75 4.31,-23.37 15.36,-27.87l132.6 -54.12c9.35,-3.82 20.08,-1.71 27.3,5.36l164.15 160.98 -36.34 18.17z"/>
    </g>
   </g>
   <path class="fil3" d="M618.86 784.83c0,20.08 -16.29,36.37 -36.38,36.37 -20.09,0 -36.38,-16.29 -36.38,-36.37 0,-20.09 16.29,-36.38 36.38,-36.38 20.09,0 36.38,16.29 36.38,36.38z"/>
   <path class="fil3" d="M879.44 784.83c0,20.08 -16.29,36.37 -36.38,36.37 -20.08,0 -36.37,-16.29 -36.37,-36.37 0,-20.09 16.29,-36.38 36.37,-36.38 20.1,0 36.38,16.29 36.38,36.38z"/>
   <path class="fil4 str0" d="M656.2 837.1c31.2,34.28 85.13,34.28 116.31,0"/>
  </g>
 </g>
</svg>
