<?xml version="1.0" encoding="UTF-8"?>
<!DOCTYPE svg PUBLIC "-//W3C//DTD SVG 1.1//EN" "http://www.w3.org/Graphics/SVG/1.1/DTD/svg11.dtd">
<!-- Creator: CorelDRAW -->
<svg xmlns="http://www.w3.org/2000/svg" xml:space="preserve" width="49.659mm" height="49.6588mm" version="1.1" style="shape-rendering:geometricPrecision; text-rendering:geometricPrecision; image-rendering:optimizeQuality; fill-rule:evenodd; clip-rule:evenodd"
viewBox="0 0 3748.29 3748.28"
 xmlns:xlink="http://www.w3.org/1999/xlink"
 xmlns:xodm="http://www.corel.com/coreldraw/odm/2003">
 <defs>
  <style type="text/css">
   <![CDATA[
    .fil0 {fill:#95D8F0}
    .fil3 {fill:#4D4D4D;fill-rule:nonzero}
    .fil2 {fill:#666666;fill-rule:nonzero}
    .fil4 {fill:#CAA3F4;fill-rule:nonzero}
    .fil5 {fill:#FBED21;fill-rule:nonzero}
    .fil1 {fill:#1A1A1A;fill-rule:nonzero;fill-opacity:0.388235}
   ]]>
  </style>
 </defs>
 <g id="OBJECTS">
  <metadata id="CorelCorpID_0Corel-Layer"/>
  <rect class="fil0" width="3748.29" height="3748.28"/>
  <g id="_2640957907520">
   <path class="fil1" d="M2404.75 2427.12l-57.37 -174.84 -442.74 -1361.97 -440.56 1364.91 -43.84 173.34c-369.82,36.12 -624.14,111.08 -624.14,197.74 0,121.9 503.06,220.72 1123.62,220.72 620.61,0 1123.63,-98.82 1123.63,-220.72 0,-87.79 -260.88,-163.6 -638.6,-199.17z"/>
   <g>
    <path class="fil2" d="M2952.18 2637.23c0,121.91 -503.07,220.74 -1123.62,220.74 -620.56,0 -1123.63,-98.83 -1123.63,-220.74 0,-121.91 503.07,-220.74 1123.63,-220.74 620.55,0 1123.62,98.83 1123.62,220.74z"/>
    <g>
     <path class="fil3" d="M1299.23 2559.17l-17.11 69.28 0.42 0c-0.15,0 -0.42,-0.23 -0.42,0.46 0,35.03 244.7,62.65 546.45,62.65 301.79,0 546.49,-27.2 546.49,-62.26 0,-0.7 -0.26,-0.85 -0.47,-0.85l0.47 0 -25.38 -78.07c-489.29,130.42 -956.57,31.18 -1050.45,8.79z"/>
     <path class="fil2" d="M2256.22 2263.22l-442.74 -1361.97 -440.56 1364.94c159.29,30.21 507.95,76.27 883.3,-2.97z"/>
     <path class="fil4" d="M1372.92 2266.18l-73.7 291.37c93.88,22.42 561.16,120.84 1050.45,-9.59l-93.45 -284.74c-375.34,79.23 -724,33.18 -883.3,2.97z"/>
    </g>
    <g>
     <path class="fil5" d="M2018.91 2600.7c0,33.78 -27.62,61.39 -61.43,61.39l-282.4 0c-33.75,0 -61.43,-27.61 -61.43,-61.39l0 -307c0,-33.78 27.67,-61.4 61.43,-61.4l282.4 0c33.81,0 61.43,27.62 61.43,61.4l0 307zm-343.82 -61.4l0 0c0,33.78 27.61,61.4 61.42,61.4l159.61 0c33.75,0 61.37,-27.62 61.37,-61.4l0 -184.21c0,-33.75 -27.61,-61.4 -61.37,-61.4l-159.61 0c-33.81,0 -61.42,27.64 -61.42,61.4l0 184.21z"/>
    </g>
   </g>
  </g>
 </g>
</svg>
