<?xml version="1.0" encoding="UTF-8"?>
<!DOCTYPE svg PUBLIC "-//W3C//DTD SVG 1.1//EN" "http://www.w3.org/Graphics/SVG/1.1/DTD/svg11.dtd">
<!-- Creator: CorelDRAW -->
<svg xmlns="http://www.w3.org/2000/svg" xml:space="preserve" width="49.659mm" height="49.6588mm" version="1.1" style="shape-rendering:geometricPrecision; text-rendering:geometricPrecision; image-rendering:optimizeQuality; fill-rule:evenodd; clip-rule:evenodd"
viewBox="0 0 833.93 833.93"
 xmlns:xlink="http://www.w3.org/1999/xlink"
 xmlns:xodm="http://www.corel.com/coreldraw/odm/2003">
 <defs>
  <style type="text/css">
   <![CDATA[
    .str0 {stroke:white;stroke-width:5.92;stroke-miterlimit:4}
    .fil4 {fill:none;fill-rule:nonzero}
    .fil0 {fill:#C3E64B}
    .fil2 {fill:#333333;fill-rule:nonzero}
    .fil5 {fill:#FF7BAC;fill-rule:nonzero}
    .fil3 {fill:white;fill-rule:nonzero}
    .fil1 {fill:#333333;fill-rule:nonzero;fill-opacity:0.149020}
   ]]>
  </style>
 </defs>
 <g id="OBJECTS">
  <metadata id="CorelCorpID_0Corel-Layer"/>
  <g id="_2640225103664">
   <rect class="fil0" width="833.93" height="833.93"/>
   <g>
    <g>
     <g>
      <g>
       <polygon class="fil1" points="227.84,435.26 205.36,243.25 326.73,293.34 "/>
       <polygon class="fil1" points="625.36,435.26 647.83,243.25 526.46,293.34 "/>
      </g>
      <path class="fil1" d="M626.96 432.06c0,98.24 -89.71,177.89 -200.37,177.89 -110.66,0 -200.37,-79.65 -200.37,-177.89 0,-98.25 89.7,-177.89 200.37,-177.89 110.66,0 200.37,79.65 200.37,177.89z"/>
      <g>
       <path class="fil1" d="M562.65 490.22c-2.66,0.98 -5.62,-0.38 -6.6,-3.04 -0.98,-2.66 0.38,-5.62 3.04,-6.59l133.47 -49.21c2.66,-0.98 5.61,0.38 6.6,3.04 0.98,2.67 -0.38,5.62 -3.04,6.6l-133.46 49.21z"/>
       <path class="fil1" d="M691.92 565.36c2.66,0.98 5.62,-0.38 6.6,-3.04 0.98,-2.66 -0.38,-5.61 -3.04,-6.6l-133.46 -49.21c-2.66,-0.98 -5.62,0.38 -6.6,3.04 -0.98,2.66 0.38,5.62 3.04,6.6l133.46 49.21z"/>
       <path class="fil1" d="M559.69 503.5c-2.83,0 -5.14,-2.3 -5.14,-5.14 0,-2.84 2.3,-5.13 5.14,-5.13l142.25 0c2.83,0 5.14,2.3 5.14,5.13 0,2.84 -2.3,5.14 -5.14,5.14l-142.25 0z"/>
       <path class="fil1" d="M290.54 490.22c2.67,0.98 5.62,-0.38 6.6,-3.04 0.98,-2.66 -0.38,-5.62 -3.04,-6.59l-133.46 -49.21c-2.66,-0.98 -5.62,0.38 -6.6,3.04 -0.98,2.67 0.38,5.62 3.04,6.6l133.47 49.21z"/>
       <path class="fil1" d="M161.27 565.36c-2.66,0.98 -5.62,-0.38 -6.59,-3.04 -0.98,-2.66 0.37,-5.61 3.04,-6.6l133.46 -49.21c2.66,-0.98 5.61,0.38 6.6,3.04 0.98,2.66 -0.38,5.62 -3.04,6.6l-133.46 49.21z"/>
       <path class="fil1" d="M293.5 503.5c2.83,0 5.14,-2.3 5.14,-5.14 0,-2.84 -2.3,-5.13 -5.14,-5.13l-142.25 0c-2.84,0 -5.14,2.3 -5.14,5.13 0,2.84 2.3,5.14 5.14,5.14l142.25 0z"/>
      </g>
     </g>
     <g>
      <polygon class="fil2" points="208.57,416 186.09,223.98 307.47,274.08 "/>
      <polygon class="fil2" points="606.09,416 628.57,223.98 507.2,274.08 "/>
     </g>
     <path class="fil2" d="M607.7 412.79c0,98.24 -89.71,177.89 -200.37,177.89 -110.66,0 -200.37,-79.65 -200.37,-177.89 0,-98.25 89.71,-177.89 200.37,-177.89 110.66,0 200.37,79.65 200.37,177.89z"/>
     <g>
      <path class="fil3" d="M345.06 399.12c-8.39,14.56 -26.99,19.55 -41.54,11.17 -14.55,-8.39 -19.55,-26.98 -11.16,-41.54 8.38,-14.55 26.98,-19.55 41.53,-11.16 14.56,8.39 19.55,26.99 11.17,41.54z"/>
      <path class="fil3" d="M469.6 399.12c8.39,14.56 26.99,19.55 41.54,11.17 14.55,-8.39 19.55,-26.98 11.16,-41.54 -8.39,-14.55 -26.99,-19.55 -41.54,-11.16 -14.55,8.39 -19.55,26.99 -11.17,41.54z"/>
     </g>
     <g>
      <path class="fil2" d="M543.39 470.95c-2.66,0.98 -5.62,-0.38 -6.6,-3.04 -0.98,-2.66 0.38,-5.62 3.04,-6.59l133.46 -49.21c2.67,-0.98 5.62,0.38 6.6,3.04 0.98,2.66 -0.38,5.61 -3.04,6.6l-133.47 49.21z"/>
      <path class="fil2" d="M672.65 546.09c2.66,0.98 5.62,-0.38 6.6,-3.04 0.98,-2.66 -0.38,-5.61 -3.04,-6.59l-133.46 -49.21c-2.67,-0.98 -5.62,0.38 -6.6,3.04 -0.98,2.66 0.38,5.62 3.04,6.6l133.46 49.21z"/>
      <path class="fil2" d="M540.43 484.23c-2.83,0 -5.14,-2.3 -5.14,-5.14 0,-2.83 2.3,-5.14 5.14,-5.14l142.25 0c2.84,0 5.14,2.3 5.14,5.14 0,2.84 -2.3,5.14 -5.14,5.14l-142.25 0z"/>
      <path class="fil2" d="M271.27 470.95c2.66,0.98 5.62,-0.38 6.6,-3.04 0.98,-2.66 -0.38,-5.62 -3.04,-6.59l-133.46 -49.21c-2.66,-0.98 -5.62,0.38 -6.6,3.04 -0.98,2.66 0.38,5.61 3.04,6.6l133.46 49.21z"/>
      <path class="fil2" d="M142.01 546.09c-2.66,0.98 -5.62,-0.38 -6.6,-3.04 -0.98,-2.66 0.38,-5.61 3.04,-6.59l133.47 -49.21c2.66,-0.98 5.61,0.38 6.6,3.04 0.98,2.66 -0.38,5.62 -3.04,6.6l-133.46 49.21z"/>
      <path class="fil2" d="M274.23 484.23c2.83,0 5.14,-2.3 5.14,-5.14 0,-2.83 -2.3,-5.14 -5.14,-5.14l-142.25 0c-2.84,0 -5.14,2.3 -5.14,5.14 0,2.84 2.3,5.14 5.14,5.14l142.25 0z"/>
     </g>
    </g>
    <path class="fil4 str0" d="M400 448.67c0,0 7.34,33.11 -8.39,44.55 -16.13,11.73 -41.36,5.13 -43.71,-27.17"/>
    <path class="fil4 str0" d="M404.19 448.67c0,0 -7.33,33.11 8.39,44.55 16.13,11.73 41.36,5.13 43.72,-27.17"/>
    <path class="fil5" d="M429.39 445.63c0,5.73 -11.22,10.37 -25.06,10.37 -13.85,0 -25.06,-4.64 -25.06,-10.37 0,-5.72 11.22,-10.37 25.06,-10.37 13.84,0 25.06,4.65 25.06,10.37z"/>
   </g>
  </g>
 </g>
</svg>
