<?xml version="1.0" encoding="UTF-8"?>
<!DOCTYPE svg PUBLIC "-//W3C//DTD SVG 1.1//EN" "http://www.w3.org/Graphics/SVG/1.1/DTD/svg11.dtd">
<!-- Creator: CorelDRAW -->
<svg xmlns="http://www.w3.org/2000/svg" xml:space="preserve" width="49.659mm" height="49.6588mm" version="1.1" style="shape-rendering:geometricPrecision; text-rendering:geometricPrecision; image-rendering:optimizeQuality; fill-rule:evenodd; clip-rule:evenodd"
viewBox="0 0 649.91 649.91"
 xmlns:xlink="http://www.w3.org/1999/xlink"
 xmlns:xodm="http://www.corel.com/coreldraw/odm/2003">
 <defs>
  <style type="text/css">
   <![CDATA[
    .fil0 {fill:#4D2877}
    .fil5 {fill:#333333;fill-rule:nonzero}
    .fil2 {fill:#BCD42F;fill-rule:nonzero}
    .fil4 {fill:#F05923;fill-rule:nonzero}
    .fil3 {fill:#F2791F;fill-rule:nonzero}
    .fil1 {fill:#333333;fill-rule:nonzero;fill-opacity:0.341176}
   ]]>
  </style>
 </defs>
 <g id="OBJECTS">
  <metadata id="CorelCorpID_0Corel-Layer"/>
  <rect class="fil0" width="649.91" height="649.91"/>
  <g id="_2640768302384">
   <path class="fil1" d="M505.32 356.53c-7.03,-55.78 -28.84,-102.42 -55.35,-125.24 -15.38,-17.66 -33.02,-27.11 -50.6,-24.9 -4.62,0.58 -9.03,1.99 -13.23,4.06 -6.97,-3.58 -14.26,-5.41 -21.73,-5.14 -4.98,0.18 -9.79,1.37 -14.44,3.3l-10.52 -7.54c3.27,-12.42 20.78,-48.96 20.78,-48.96l-12.97 -4.19c1.69,-3.62 2.81,-5.97 2.81,-5.97l-28.84 -9.31c-5.32,4.43 -11.09,59.89 -11.09,59.89l-19.87 14.45c-3.24,-0.95 -6.54,-1.55 -9.92,-1.67 -7.47,-0.27 -14.75,1.55 -21.73,5.14 -4.2,-2.07 -8.61,-3.47 -13.23,-4.06 -42.5,-5.35 -85.38,57.32 -95.78,139.98 -8.47,67.27 7.18,127.04 36.2,149.85 9.01,11.13 19.84,18.12 32.04,19.66 11.6,1.46 23.23,-2.18 34.22,-9.89 8.36,6.72 17.56,10.61 27.32,10.96 9.78,0.36 19.27,-2.86 28.13,-8.98 7.79,5.99 16.22,9.28 25.01,9.28 8.79,0 17.21,-3.28 25.01,-9.28 8.86,6.12 18.34,9.34 28.13,8.98 9.76,-0.36 18.96,-4.24 27.32,-10.96 10.99,7.71 22.62,11.35 34.22,9.89 42.49,-5.35 68.5,-76.7 58.09,-159.36z"/>
   <g>
    <path class="fil2" d="M270.96 217.6l34.16 -24.85c0,0 5.77,-55.46 11.09,-59.9l28.84 9.32c0,0 -20.41,42.59 -21.29,51.47l32.83 23.52c0,0 -5.77,19.08 -47.91,20.41 -42.15,1.33 -37.71,-19.96 -37.71,-19.96z"/>
    <path class="fil3" d="M490.13 346.59c-10.41,-82.66 -53.29,-145.33 -95.78,-139.98 -4.62,0.58 -9.03,1.99 -13.23,4.05 -6.97,-3.58 -14.26,-5.41 -21.73,-5.13 -7.37,0.27 -14.41,2.58 -21.03,6.57 -6.65,-4.2 -13.69,-6.48 -20.99,-6.48 -7.3,0 -14.35,2.28 -20.99,6.48 -6.62,-3.99 -13.67,-6.3 -21.04,-6.57 -7.47,-0.27 -14.75,1.55 -21.72,5.13 -4.2,-2.07 -8.61,-3.47 -13.23,-4.05 -42.49,-5.35 -85.37,57.32 -95.78,139.98 -10.41,82.66 15.6,154.01 58.09,159.36 11.6,1.46 23.23,-2.18 34.22,-9.88 8.36,6.72 17.56,10.61 27.32,10.96 9.78,0.36 19.27,-2.86 28.13,-8.98 7.79,5.99 16.22,9.28 25.01,9.28 8.79,0 17.22,-3.28 25.01,-9.28 8.86,6.12 18.34,9.34 28.13,8.98 9.76,-0.36 18.96,-4.24 27.32,-10.96 10.99,7.7 22.62,11.35 34.22,9.88 42.49,-5.35 68.5,-76.7 58.09,-159.36z"/>
    <g>
     <path class="fil4" d="M261.07 207.64c-2.52,0.81 -5.02,1.77 -7.46,3.02 -0.7,-0.34 -1.41,-0.64 -2.11,-0.94 -7.29,56.59 -21.97,187.6 -16.53,287.6 0.65,-0.42 1.3,-0.81 1.94,-1.26 2.44,1.96 4.96,3.65 7.53,5.11 -6.22,-101.65 9.45,-238.37 16.64,-293.52z"/>
     <path class="fil4" d="M297.7 211.37c-0.44,0.26 -0.89,0.46 -1.33,0.73 -2.56,-1.54 -5.2,-2.75 -7.88,-3.77 -0.37,44.88 -1.54,196.6 -1.4,292.93 1.77,-0.97 3.53,-2.02 5.26,-3.21 1.31,1 2.64,1.9 3.97,2.75 -0.13,-94.26 0.99,-241.25 1.38,-289.43z"/>
     <path class="fil4" d="M349.85 207.11c-3.2,0.9 -6.32,2.21 -9.36,3.86 -1.91,75.4 -4.67,205.01 -3.71,290.83 1.89,-1.1 3.76,-2.34 5.59,-3.75 1.21,0.83 2.43,1.6 3.66,2.33 -0.91,-86.96 1.94,-219.04 3.82,-293.26z"/>
     <path class="fil4" d="M391.28 207.13c-3.19,0.66 -6.27,1.73 -9.25,3.13 -0.34,56.92 1.12,169.16 14.65,286.65 0.38,-0.29 0.77,-0.56 1.14,-0.85 2.85,1.99 5.74,3.71 8.66,5.14 -14.32,-121.2 -15.63,-237.65 -15.2,-294.06z"/>
     <path class="fil4" d="M449 236.44c-2.75,-3.5 -5.56,-6.78 -8.46,-9.72 -5.43,63.54 -9.36,170.63 11.32,271.23 2.8,-1.99 5.48,-4.3 8.03,-6.93 -18.42,-93.46 -15.77,-191.99 -10.89,-254.58z"/>
     <path class="fil4" d="M182.85 240.23c-2.59,3.57 -5.1,7.38 -7.52,11.41 8.62,55.35 20.21,153.27 13.85,250.12 2.91,1.46 5.92,2.6 9.04,3.35 7.23,-104.71 -6.55,-210.99 -15.38,-264.88z"/>
    </g>
   </g>
   <path class="fil5" d="M226.06 351.76l47.55 0c8.6,0 13.58,-9.75 8.54,-16.72l-24.68 -34.12c-4.3,-5.95 -13.21,-5.79 -17.3,0.31l-22.87 34.12c-4.69,7 0.32,16.41 8.76,16.41z"/>
   <path class="fil5" d="M364.68 348.68l47.32 0c8.65,0 13.66,-9.8 8.59,-16.81l-24.56 -33.96c-4.32,-5.98 -13.29,-5.82 -17.39,0.31l-22.76 33.96c-4.72,7.04 0.33,16.5 8.81,16.5z"/>
   <g>
    <path class="fil5" d="M391.19 378.94l-23.7 0.32c0.05,0.45 0.14,0.89 0.14,1.35l0 20.24c0,6.88 -5.63,12.5 -12.5,12.5 -6.88,0 -12.5,-5.63 -12.5,-12.5l0 -20.24c0,-0.35 0.07,-0.68 0.1,-1.02l-43.75 0.59c0.01,0.15 0.05,0.28 0.05,0.43l0 20.24c0,6.88 -5.63,12.5 -12.5,12.5l-0 0c-6.88,0 -12.5,-5.63 -12.5,-12.5l0 -20.24c0,-0.03 0.01,-0.07 0.01,-0.1l-18.16 0.24c-9.78,0.13 -16.22,10.51 -11.75,19.2 26.06,50.7 104.93,41.69 131.97,26.44 13.97,-7.88 22.27,-18.76 27.15,-28.14 4.62,-8.88 -2.05,-19.45 -12.05,-19.32z"/>
   </g>
  </g>
 </g>
</svg>
