<?xml version="1.0" encoding="UTF-8"?>
<!DOCTYPE svg PUBLIC "-//W3C//DTD SVG 1.1//EN" "http://www.w3.org/Graphics/SVG/1.1/DTD/svg11.dtd">
<!-- Creator: CorelDRAW -->
<svg xmlns="http://www.w3.org/2000/svg" xml:space="preserve" width="49.659mm" height="49.6588mm" version="1.1" style="shape-rendering:geometricPrecision; text-rendering:geometricPrecision; image-rendering:optimizeQuality; fill-rule:evenodd; clip-rule:evenodd"
viewBox="0 0 584.96 584.96"
 xmlns:xlink="http://www.w3.org/1999/xlink"
 xmlns:xodm="http://www.corel.com/coreldraw/odm/2003">
 <defs>
  <style type="text/css">
   <![CDATA[
    .str0 {stroke:#333333;stroke-width:8.31;stroke-linecap:round;stroke-linejoin:round;stroke-miterlimit:10}
    .fil5 {fill:none;fill-rule:nonzero}
    .fil0 {fill:#2E2E2E}
    .fil4 {fill:#333333;fill-rule:nonzero}
    .fil6 {fill:#B3B3B3;fill-rule:nonzero}
    .fil2 {fill:#F2F2F2;fill-rule:nonzero}
    .fil3 {fill:white;fill-rule:nonzero}
    .fil1 {fill:#1A1A1A;fill-rule:nonzero;fill-opacity:0.470588}
   ]]>
  </style>
 </defs>
 <g id="OBJECTS">
  <metadata id="CorelCorpID_0Corel-Layer"/>
  <g id="_2640914622576">
   <rect class="fil0" width="584.96" height="584.96"/>
   <g>
    <path class="fil1" d="M397.6 323.54c39.92,-103.29 -52,-219.78 -153.91,-183.62 -61.87,21.96 -78.32,77.52 -69.41,134.06 3.2,20.3 9.71,40.7 18.51,59.75 -3.2,14.71 -6.83,41.11 4.02,55.56 7.29,9.72 15.14,0.11 21.44,-12.87 7.89,10.41 16.44,19.73 25.44,27.45 61.81,53.04 185.92,45.91 185.92,45.91 0,0 -71.94,-22.95 -32.01,-126.24z"/>
    <path class="fil2" d="M178.84 324.77c0,0 -14.28,45.43 1.29,66.19 15.57,20.77 33.75,-46.72 33.75,-46.72l-35.04 -19.47z"/>
    <path class="fil3" d="M157.61 275.66c-8.91,-56.54 7.54,-112.1 69.41,-134.06 101.91,-36.16 193.84,80.33 153.91,183.62 -39.92,103.28 32.01,126.24 32.01,126.24 0,0 -124.11,7.14 -185.92,-45.91 -33.73,-28.95 -61.52,-79.8 -69.41,-129.89z"/>
    <path class="fil4" d="M225.12 247.8c0,11.28 -9.14,20.43 -20.42,20.43 -11.29,0 -20.43,-9.15 -20.43,-20.43 0,-11.28 9.14,-20.43 20.43,-20.43 11.28,0 20.42,9.15 20.42,20.43z"/>
    <path class="fil4" d="M325.95 240.92c0,11.28 -9.15,20.43 -20.43,20.43 -11.28,0 -20.43,-9.15 -20.43,-20.43 0,-11.28 9.15,-20.43 20.43,-20.43 11.28,0 20.43,9.15 20.43,20.43z"/>
    <path class="fil5 str0" d="M230.97 271.81c11.26,23.03 44.65,16.7 47.08,-5.02"/>
    <g>
     <path class="fil3" d="M312.52 307.9c0,0 -22.06,38.94 -3.89,54.51 18.17,15.57 36.34,-48.02 36.34,-48.02l-32.45 -6.49z"/>
     <path class="fil6" d="M316.9 310.33c0,0 -0.22,0.4 -0.65,1.16 -0.39,0.73 -1.01,1.89 -1.72,3.37 -1.45,2.96 -3.42,7.28 -5.21,12.61 -0.87,2.66 -1.73,5.57 -2.32,8.65 -0.3,1.54 -0.62,3.12 -0.71,4.71 -0.23,1.61 -0.25,3.22 -0.2,4.83 -0.11,1.67 0.37,3.14 0.5,4.77 0.2,0.75 0.48,1.46 0.7,2.21l0.34 1.12 0.56 0.98 1.1 1.98 1.53 1.66 0.37 0.43 0.18 0.22 0.05 0.06 0.02 0.03c0.27,0.22 -0.35,-0.26 -0.27,-0.2l0.15 0.11 1.19 0.88c0.5,0.42 0.49,0.21 0.69,0.35 0.13,0.08 0.28,0.18 0.53,0.2 1.49,0.65 4.03,-0.59 6.41,-2.95 2.37,-2.28 4.42,-5.29 6.24,-8.26 3.64,-6.02 6.4,-12.24 8.62,-17.59 2.2,-5.37 3.82,-9.96 4.91,-13.18 1.03,-3.21 1.63,-5.04 1.63,-5.04l0.05 -0.15c0.61,-1.87 2.62,-2.9 4.49,-2.29 1.85,0.6 2.87,2.56 2.32,4.41 0,0 -0.58,1.94 -1.59,5.32 -1.05,3.35 -2.61,8.1 -4.76,13.73 -2.19,5.62 -4.87,12.15 -8.74,18.89 -1.98,3.36 -4.15,6.81 -7.29,10.02 -1.52,1.62 -3.44,3.15 -5.79,4.37 -2.3,1.25 -5.66,1.82 -8.6,1.03 -1.35,-0.2 -3.29,-1.28 -4.15,-1.83l-1.21 -0.85 -0.15 -0.11c0.05,0.04 -0.58,-0.46 -0.33,-0.27l-0.04 -0.04 -0.08 -0.08 -0.32 -0.32 -0.63 -0.65 -2.48 -2.65c-0.67,-0.98 -1.25,-2.03 -1.86,-3.06l-0.88 -1.55 -0.58 -1.63c-0.37,-1.08 -0.78,-2.17 -1.08,-3.25 -0.31,-2.15 -0.91,-4.35 -0.85,-6.4 -0.11,-2.09 -0.11,-4.12 0.1,-6.05 0.09,-1.97 0.41,-3.81 0.72,-5.61 0.61,-3.6 1.5,-6.87 2.41,-9.85 1.84,-5.95 3.88,-10.67 5.38,-13.94 0.74,-1.65 1.38,-2.89 1.84,-3.8 0.45,-0.87 0.7,-1.34 0.7,-1.34 1.29,-2.45 4.32,-3.4 6.77,-2.11 2.45,1.29 3.4,4.32 2.11,6.77 -0.01,0.03 -0.03,0.05 -0.04,0.08l-0.07 0.13z"/>
    </g>
    <path class="fil5 str0" d="M282.15 210.23c0,0 19.93,-23.15 44.36,0"/>
    <path class="fil5 str0" d="M180.56 219.23c0,0 17.36,-22.5 41.79,-4.5"/>
   </g>
  </g>
 </g>
</svg>
