<?xml version="1.0" encoding="UTF-8"?>
<!DOCTYPE svg PUBLIC "-//W3C//DTD SVG 1.1//EN" "http://www.w3.org/Graphics/SVG/1.1/DTD/svg11.dtd">
<!-- Creator: CorelDRAW -->
<svg xmlns="http://www.w3.org/2000/svg" xml:space="preserve" width="49.659mm" height="49.6588mm" version="1.1" style="shape-rendering:geometricPrecision; text-rendering:geometricPrecision; image-rendering:optimizeQuality; fill-rule:evenodd; clip-rule:evenodd"
viewBox="0 0 2068.25 2068.24"
 xmlns:xlink="http://www.w3.org/1999/xlink"
 xmlns:xodm="http://www.corel.com/coreldraw/odm/2003">
 <defs>
  <style type="text/css">
   <![CDATA[
    .fil0 {fill:#D9273F}
    .fil3 {fill:#1A1A1C;fill-rule:nonzero}
    .fil6 {fill:#212323;fill-rule:nonzero}
    .fil2 {fill:#343638;fill-rule:nonzero}
    .fil4 {fill:#C3E64B;fill-rule:nonzero}
    .fil1 {fill:#343638;fill-rule:nonzero;fill-opacity:0.360784}
    .fil5 {fill:white;fill-rule:nonzero;fill-opacity:0.529412}
   ]]>
  </style>
 </defs>
 <g id="OBJECTS">
  <metadata id="CorelCorpID_0Corel-Layer"/>
  <rect class="fil0" width="2068.25" height="2068.24"/>
  <g id="_2640657754704">
   <path class="fil1" d="M1591.34 1159.69c0,-141.65 -58.89,-269.74 -153.84,-362.79 12.68,-9.61 21,-24.68 21,-41.72 0,-28.9 -23.62,-52.54 -52.52,-52.54l-696.42 0c-28.9,0 -52.54,23.64 -52.54,52.54 0,19.99 11.45,37.26 27.98,46.13 -92.32,92.66 -149.31,218.98 -149.31,358.38 0,162.46 72.67,276.2 189.3,343.92 -36.11,60.05 -14.86,146.74 -14.86,146.74 -64.02,11.32 -62.6,62.32 11.38,55.51 73.99,-6.8 73.99,-67.98 65.46,-124.63 -2.68,-17.79 5.73,-30.88 18.53,-40.47 71.9,25.81 154.66,38.58 243.97,38.58 96.68,0 188.77,-14.99 268.77,-45.29 18.4,9.9 32.66,24.78 29.3,47.18 -8.55,56.65 -8.55,117.83 65.43,124.63 73.98,6.8 75.41,-44.19 11.39,-55.51 0,0 23.73,-96.98 -21.75,-156.83 114.53,-68.7 188.74,-179.19 188.74,-333.84z"/>
   <g>
    <path class="fil2" d="M1346.61 752.99l-683.74 0c-113.73,94.41 -185.95,234.95 -185.95,392.01 0,284.26 222.26,419.65 513.76,419.65 291.51,0 541.89,-135.39 541.89,-419.65 0,-157.06 -72.23,-297.6 -185.95,-392.01z"/>
    <path class="fil3" d="M1346.26 752.99c0,15.45 -153.04,27.97 -341.83,27.97 -188.8,0 -341.84,-12.52 -341.84,-27.97 0,-15.45 153.04,-27.97 341.84,-27.97 188.78,0 341.83,12.52 341.83,27.97z"/>
    <path class="fil2" d="M1193.42 1500.83c0,0 103.85,9.07 95.33,65.72 -8.55,56.65 -8.55,117.84 65.43,124.63 73.99,6.8 75.42,-44.19 11.4,-55.51 0,0 37.36,-152.11 -70.8,-192.9 0,0 -109.91,-30.32 -101.36,58.07z"/>
    <path class="fil2" d="M823.51 1500.83c0,0 -103.87,9.07 -95.33,65.72 8.54,56.65 8.54,117.84 -65.46,124.63 -73.98,6.8 -75.4,-44.19 -11.38,-55.51 0,0 -37.35,-152.11 70.78,-192.9 0,0 109.92,-30.32 101.39,58.07z"/>
   </g>
   <path class="fil4" d="M813.23 639.54c0,55.34 -44.87,100.22 -100.22,100.22 -55.34,0 -100.21,-44.87 -100.21,-100.22 0,-55.35 44.86,-100.22 100.21,-100.22 55.36,0 100.22,44.88 100.22,100.22z"/>
   <path class="fil4" d="M1106.24 484.51c0,52.94 -42.9,95.86 -95.83,95.86 -52.95,0 -95.86,-42.92 -95.86,-95.86 0,-52.94 42.92,-95.86 95.86,-95.86 52.93,0 95.83,42.92 95.83,95.86z"/>
   <path class="fil4" d="M849.57 528.67c0,43.32 -35.11,78.43 -78.43,78.43 -43.32,0 -78.45,-35.12 -78.45,-78.43 0,-43.32 35.13,-78.43 78.45,-78.43 43.32,0 78.43,35.11 78.43,78.43z"/>
   <path class="fil4" d="M1410.46 647.91c0,43.31 -35.12,78.43 -78.46,78.43 -43.3,0 -78.43,-35.12 -78.43,-78.43 0,-43.32 35.13,-78.44 78.43,-78.44 43.34,0 78.46,35.12 78.46,78.44z"/>
   <path class="fil4" d="M747.53 636.46c0,-68.58 55.6,-124.18 124.18,-124.18 68.59,0 124.19,55.6 124.19,124.18 0,68.59 -55.6,124.18 -124.19,124.18 -68.58,0 -124.18,-55.59 -124.18,-124.18z"/>
   <path class="fil4" d="M1113.65 680.59c0,-40.91 33.17,-74.07 74.06,-74.07 40.92,0 74.07,33.17 74.07,74.07 0,40.91 -33.14,74.07 -74.07,74.07 -40.89,0 -74.06,-33.17 -74.06,-74.07z"/>
   <path class="fil4" d="M957.92 488.96c0,37.3 -30.23,67.53 -67.54,67.53 -37.29,0 -67.54,-30.24 -67.54,-67.53 0,-37.31 30.25,-67.54 67.54,-67.54 37.31,0 67.54,30.23 67.54,67.54z"/>
   <path class="fil4" d="M961.15 641.37c0,-62.57 50.72,-113.29 113.27,-113.29 62.59,0 113.29,50.72 113.29,113.29 0,62.57 -50.7,113.29 -113.29,113.29 -62.55,0 -113.27,-50.72 -113.27,-113.29z"/>
   <path class="fil4" d="M1196.44 650.08c0,-43.32 35.13,-78.43 78.43,-78.43 43.3,0 78.43,35.11 78.43,78.43 0,43.32 -35.13,78.43 -78.43,78.43 -43.3,0 -78.43,-35.12 -78.43,-78.43z"/>
   <path class="fil4" d="M1078.21 510.46c0,55.35 44.88,100.22 100.24,100.22 55.33,0 100.21,-44.87 100.21,-100.22 0,-55.35 -44.89,-100.22 -100.21,-100.22 -55.36,0 -100.24,44.87 -100.24,100.22z"/>
   <path class="fil5" d="M1364.08 889.72c0,0 213.51,261.44 -26.14,488.02 0,0 113.27,-204.79 26.14,-488.02z"/>
   <path class="fil4" d="M1355.39 556.04c0,37.03 -30.02,67.06 -67.06,67.06 -37.02,0 -67.07,-30.02 -67.07,-67.06 0,-37.04 30.05,-67.06 67.07,-67.06 37.05,0 67.06,30.02 67.06,67.06z"/>
   <path class="fil6" d="M1347.21 793.02l-696.42 0c-28.9,0 -52.54,-23.64 -52.54,-52.54 0,-28.9 23.65,-52.54 52.54,-52.54l696.42 0c28.9,0 52.52,23.64 52.52,52.54 0,28.9 -23.62,52.54 -52.52,52.54z"/>
   <path class="fil4" d="M831.35 386.37c0,13.61 -11.03,24.64 -24.64,24.64 -13.6,0 -24.62,-11.02 -24.62,-24.64 0,-13.59 11.02,-24.62 24.62,-24.62 13.6,0 24.64,11.03 24.64,24.62z"/>
   <path class="fil4" d="M1430.63 463c0,19.64 -15.93,35.57 -35.58,35.57 -19.63,0 -35.56,-15.93 -35.56,-35.57 0,-19.65 15.93,-35.58 35.56,-35.58 19.66,0 35.58,15.93 35.58,35.58z"/>
   <path class="fil4" d="M549.49 536.89c0,15.11 -12.25,27.36 -27.38,27.36 -15.11,0 -27.36,-12.25 -27.36,-27.36 0,-15.11 12.25,-27.37 27.36,-27.37 15.12,0 27.38,12.25 27.38,27.37z"/>
   <path class="fil4" d="M560.44 728.44c0,22.67 -18.38,41.05 -41.05,41.05 -22.67,0 -41.05,-18.38 -41.05,-41.05 0,-22.67 18.38,-41.05 41.05,-41.05 22.67,0 41.05,18.38 41.05,41.05z"/>
   <path class="fil4" d="M1255.49 870.74c0,31.73 -25.71,57.47 -57.45,57.47 -31.74,0 -57.48,-25.73 -57.48,-57.47 0,-31.74 25.74,-57.47 57.48,-57.47 31.74,0 57.45,25.73 57.45,57.47z"/>
   <path class="fil4" d="M1563.36 733.91c0,18.89 -15.32,34.21 -34.21,34.21 -18.88,0 -34.21,-15.32 -34.21,-34.21 0,-18.89 15.32,-34.21 34.21,-34.21 18.88,0 34.21,15.32 34.21,34.21z"/>
  </g>
 </g>
</svg>
