<svg width="90" height="115" viewBox="0 0 90 115" fill="none" xmlns="http://www.w3.org/2000/svg">
<path d="M28.2306 31.1232C21.6395 37.3993 19.7933 43.6372 19.8255 49.1106C19.8541 53.9785 21.3597 58.2789 22.5336 61.6319C22.6971 62.0988 22.8542 62.5473 22.9999 62.9765L23.8655 65.5255L21.5456 64.1598C15.2494 60.453 9.91983 55.2797 6.02643 49.1084C2.82153 55.1802 1 62.0936 1 69.438C1 93.5467 20.5442 113.09 44.652 113.09C68.7597 113.09 88.305 93.5457 88.305 69.438C88.305 62.0944 86.4826 55.1809 83.2773 49.1089C80.9067 52.8633 78.0016 56.2442 74.6755 59.1546L72.703 60.8806L73.0246 58.2793C75.9429 34.6698 65.2793 20.3975 53.8676 11.9729C48.1441 7.74762 42.2288 4.99492 37.7381 3.29856C35.9794 2.63419 34.4424 2.13305 33.2254 1.76966C34.948 4.52606 36.0951 8.48049 36.128 12.7795C36.1736 18.7451 34.0844 25.5496 28.2306 31.1232ZM28.2306 31.1232L27.541 30.399L28.2306 31.1232Z" stroke="black" stroke-width="2"/>
<path d="M47.0349 45.0441C47.0349 45.0441 21.6089 60.2971 40.6739 96.0451C40.6739 96.0451 55.8379 94.2591 57.3569 77.4561C58.3539 66.4261 42.3309 63.1741 47.0349 45.0441Z" fill="#2B2B2B"/>
</svg>
