<svg width="90" height="105" viewBox="0 0 90 105" fill="none" xmlns="http://www.w3.org/2000/svg">
<path d="M29.5085 29.9992C23.3442 35.3545 21.7976 40.467 21.8254 44.7921C21.8513 48.8114 23.2054 52.353 24.3824 55.4315C24.548 55.8647 24.7101 56.2886 24.8645 56.7035L27.6381 64.1551L20.6334 60.3928C15.0469 57.3922 10.1708 53.3697 6.32048 48.5882C4.18166 53.1295 3 58.1167 3 63.3517C3 83.9412 21.3839 101.09 44.652 101.09C67.9202 101.09 86.305 83.9403 86.305 63.3517C86.305 58.1166 85.1224 53.1287 82.9825 48.5866C80.8993 51.17 78.5166 53.5296 75.8887 55.6276L70.0393 60.2974L71.0442 52.8803C73.8193 32.3976 63.776 20.0801 52.7856 12.6777C47.248 8.94797 41.5006 6.50405 37.114 4.99223C37.0954 4.98581 37.0768 4.97941 37.0582 4.97302C37.7291 7.03748 38.1084 9.31285 38.1279 11.6412C38.1785 17.6827 35.8436 24.496 29.5085 29.9992ZM29.5085 29.9992L27.541 27.7345L29.5085 29.9992Z" stroke="white" stroke-width="6"/>
<path d="M49.1652 52C49.1652 52 29.9491 62.7666 44.3578 88C44.3578 88 55.8181 86.7393 56.9661 74.8786C57.7196 67.0929 45.61 64.7974 49.1652 52Z" fill="white"/>
</svg>
