<svg width="90" height="105" viewBox="0 0 90 105" fill="none" xmlns="http://www.w3.org/2000/svg">
<path d="M83.316 42.9835C80.851 46.8692 77.698 50.3444 74.017 53.2831C79.961 9.41089 30.448 0 30.448 0C35.544 3.91216 38.801 17.9532 27.541 27.7345C13.956 39.5367 19.714 51.4657 22.053 57.7499C15.403 54.1781 9.85498 49.0799 5.98798 42.9826C2.18598 48.9759 0 55.9289 0 63.3517C0 85.8512 19.992 104.09 44.652 104.09C69.312 104.09 89.305 85.8503 89.305 63.3517C89.305 55.9298 87.118 48.9768 83.316 42.9835Z" fill="#DC481F"/>
<path d="M49.1652 52C49.1652 52 29.9491 62.7666 44.3578 88C44.3578 88 55.8181 86.7393 56.9661 74.8786C57.7196 67.0929 45.61 64.7974 49.1652 52Z" fill="#E6F544"/>
</svg>
