<?xml version="1.0" encoding="UTF-8"?>
<!DOCTYPE svg PUBLIC "-//W3C//DTD SVG 1.1//EN" "http://www.w3.org/Graphics/SVG/1.1/DTD/svg11.dtd">
<!-- Creator: CorelDRAW -->
<svg xmlns="http://www.w3.org/2000/svg" xml:space="preserve" width="84.355mm" height="84.3657mm" version="1.1" style="shape-rendering:geometricPrecision; text-rendering:geometricPrecision; image-rendering:optimizeQuality; fill-rule:evenodd; clip-rule:evenodd"
viewBox="0 0 8435.5 8436.57"
 xmlns:xlink="http://www.w3.org/1999/xlink"
 xmlns:xodm="http://www.corel.com/coreldraw/odm/2003">
 <defs>
  <style type="text/css">
   <![CDATA[
    .fil6 {fill:black}
    .fil0 {fill:#B30707}
    .fil2 {fill:black;fill-rule:nonzero}
    .fil1 {fill:#595959;fill-rule:nonzero}
    .fil4 {fill:#5959A3;fill-rule:nonzero}
    .fil7 {fill:#BFBFBF;fill-rule:nonzero}
    .fil5 {fill:#D2B107;fill-rule:nonzero}
    .fil3 {fill:white;fill-rule:nonzero}
   ]]>
  </style>
 </defs>
 <g id="Camada_x0020_1">
  <metadata id="CorelCorpID_0Corel-Layer"/>
  <path id="_3CPath3E_0" class="fil0" d="M8435.5 4218.82c0,2329.48 -1888.27,4217.75 -4217.75,4217.75 -2329.48,0 -4217.75,-1888.27 -4217.75,-4217.75 0,-2329.48 1888.27,-4218.82 4217.75,-4218.82 2329.48,0 4217.75,1889.34 4217.75,4218.82z"/>
  <path id="_3CPath3E_2" class="fil0" d="M7926.45 4218.28c0,2048.22 -1660.48,3708.69 -3708.7,3708.69 -2048.23,0 -3708.7,-1660.47 -3708.7,-3708.69 0,-2048.23 1660.48,-3708.7 3708.7,-3708.7 2048.23,0 3708.7,1660.48 3708.7,3708.7z"/>
  <g id="_1707953956112">
   <path class="fil1" d="M3647.91 2364.19l-45.12 45.92 -1660.99 1692.44c-274.03,-1120.03 186.57,-4508.39 1481.51,-2178.82 73.12,131.87 144.2,271.44 212.83,415.65 3.95,8.16 7.83,16.54 11.77,24.81l0 0z"/>
   <path class="fil2" d="M1911.37 4172.99l1662.26 -1824.51c-1402.27,-2730.92 -1597.09,-34.4 -1662.26,1824.51zm-72.4 237.5l-0.51 -0.12c-17.29,-4.17 -32.06,-17.59 -40.13,-36.5 -74.9,-577.43 92.96,-4370.06 1219.66,-3145.92 220.52,239.64 443,600.03 680.15,1101.63 13.86,29.26 8.41,66.22 -12.91,88l-1798.11 1977.68c-13.34,13.57 -31.02,19.16 -48.15,15.22l0 0.01z"/>
   <path class="fil3" d="M3257.61 2761.9c-262.46,-595.51 -372.77,-968.13 -680.71,-1140.9 -70.9,-39.76 -155.64,2.11 -184.91,89.6 -254.09,759.43 -353.72,1583.41 -180.83,2117.71l1046.45 -1066.41 0 0z"/>
   <path class="fil2" d="M2531.14 1614.04c-14.3,-3.29 -29.25,-1.51 -43.43,5.21 -20.67,9.88 -37.24,29.65 -45.47,54.18 -225.85,675.05 -270.14,1478.87 -204.74,2036.63l947.07 -965.1c-241.4,-544.83 -347.58,-962.37 -635.48,-1123.96 -5.81,-3.15 -11.81,-5.55 -17.95,-6.96l0 0zm-330.81 2282.91c-1.16,-0.27 -2.29,-0.56 -3.43,-0.91 -18.11,-5.57 -32.86,-21.31 -39.66,-42.31 -181.54,-561.06 -81.37,-1458.29 177.69,-2232.62 20.05,-59.9 60.26,-108.03 110.28,-131.79 50.09,-23.87 104.37,-22.17 152.65,5.02 329.11,184.67 454.07,652.1 710.86,1234.76 12.79,29.02 7.06,64.94 -13.75,86.16l-1046.49 1066.42c-13.39,13.65 -31.08,19.19 -48.15,15.27l0 0z"/>
   <path class="fil1" d="M4465.44 7334.28c-1558.13,6.98 -2723.63,-650.31 -2834.9,-2134.13 34.62,-144 63.62,-289.9 81.71,-437.41 373.27,-3057.41 4069.92,-3376.3 4795.63,-603.88 33.3,127.28 74.04,251.99 124.86,371.94 80.37,189.41 148.62,370.53 203.92,543.21 66.03,1568.4 -1489.96,2200.13 -2371.21,2260.27l-0.01 0z"/>
   <g>
    <path class="fil2" d="M3419.89 4624.13c14.07,303.02 -127.87,557.88 -316.95,568.92 -189.08,11.04 -353.85,-225.92 -367.92,-528.93 -8.97,-193.18 45.55,-366.96 135.11,-469.82 107.18,4.33 213.49,34.28 306.77,88.78 65.48,38.23 125.43,88.34 197.06,112.4 1.35,0.43 2.49,0.86 3.89,1.24 23.44,68.7 38.24,145.5 42.04,227.41l0 0z"/>
    <path class="fil2" d="M3589.1 4339.82c-16.16,-9.33 -27.27,2.68 -41.83,8.14 -17.62,6.55 -36.2,8.74 -54.64,11.52 -37.29,5.63 -70.86,5.47 -107.18,-7.04 -84.96,-29.27 -154.85,-96.46 -236.3,-134.63 -85.98,-40.21 -177.14,-61.98 -270.85,-67.18 -43.36,-2.44 -92.9,2.93 -133.88,20.19 -20.95,8.81 -41.77,18.59 -61.81,29.56 -17.81,9.74 -40.52,14.88 -53.84,31.34 -3.95,4.93 -1.6,12.06 4.03,13.67 15.2,4.39 30.01,-1.12 45.54,-1.66 18.27,-0.65 39.4,-0.18 57.39,2.32 36.8,5.16 74.73,9.43 111.94,11.27 73.22,3.58 143.92,13.35 213.52,39.16 136.34,50.59 249,185.64 402.57,173.91 39.7,-3.01 75.41,-16.74 105.22,-45.52 16.03,-15.49 50.61,-67.56 20.12,-85.05l0 0z"/>
    <path class="fil3" d="M3303.65 4599.08c-5.11,-110.03 -57.92,-196.39 -117.93,-192.88 -60.01,3.5 -104.53,95.54 -99.42,205.57 5.1,109.98 57.91,196.35 117.92,192.84 60,-3.5 104.53,-95.55 99.43,-205.53l0 0z"/>
    <path class="fil4" d="M3024.44 5077.4c-37.89,2.21 -84.51,-38.04 -111.99,-100.35 -32.15,-72.92 -25.9,-148.47 13.96,-168.74 5.81,-2.91 12.02,-4.56 18.51,-4.94 37.84,-2.21 84.45,38.04 111.95,100.39 32.15,72.93 25.88,148.43 -13.97,168.7 -5.8,2.96 -12.02,4.56 -18.46,4.94l0 0z"/>
   </g>
   <path class="fil2" d="M5731.17 4513.07c13.24,285.4 -113.72,524.93 -283.73,534.86 -169.77,9.91 -318.22,-213.54 -331.47,-498.94 -0.33,-7.15 -0.67,-14.32 -0.58,-21.49 7.22,-6.08 13.88,-12.91 19.9,-20.45 24.57,-31.34 36.74,-71.57 52.45,-108.83 32.64,-77.27 82.03,-144.43 133.41,-208.2 40.64,-50.6 83.85,-100.56 137.56,-133.13 13.44,-8.2 27.6,-14.96 42.09,-20.22 124.24,62.68 219.86,250.1 230.37,476.4l0 0z"/>
   <path class="fil2" d="M4923.56 4541.4c9.25,36 46.32,48.7 75.85,59.35 33.03,11.96 73.62,16.95 106.92,3.23 87.44,-36.02 107.13,-138.02 148.37,-216.3 43.3,-82.16 104.29,-160.22 168.31,-224.97 29.04,-29.34 62.43,-56.87 98.24,-76.12 17.86,-9.6 37.28,-18.7 56.99,-23.02 20.21,-4.4 41.94,-1.12 61.59,-7.47 6.37,-2.06 8.36,-10.19 5.2,-15.85 -18.5,-33.29 -67.18,-40.75 -99.88,-42.79 -45.57,-2.91 -89.17,11.82 -128.64,35.71 -74.89,45.36 -134.83,129.19 -186.41,201.18 -27.55,38.41 -53.5,78.67 -74.42,121.62 -19.08,39.07 -29.46,85.64 -53.89,121.44 -15.53,22.71 -46.63,42.05 -70.78,51.7 -34.85,13.9 -60.74,-5.89 -95.04,-7.06 -9.45,-0.33 -14.56,10.93 -12.41,19.35l0 0z"/>
   <path class="fil3" d="M5454.46 4525.59c-4.4,-94.8 -49.94,-169.2 -101.66,-166.18 -51.72,3.02 -90.07,82.32 -85.67,177.12 4.4,94.8 49.89,169.2 101.61,166.19 51.72,-3.02 90.12,-82.33 85.72,-177.13l0 0z"/>
   <path class="fil4" d="M5532.74 4895.35c-3.96,0.24 -7.89,-0.14 -11.77,-1.2 -35.2,-9.39 -51.25,-69.38 -35.86,-134 13.69,-57.53 47.68,-99.31 79.81,-101.18 3.99,-0.24 7.93,0.18 11.81,1.2 35.2,9.39 51.24,69.38 35.85,134 -13.69,57.53 -47.72,99.31 -79.84,101.19l0 -0.01z"/>
   <path class="fil2" d="M4374.38 7270.83c1555.16,-43.12 2413.69,-1288.09 2395.52,-2092.67 -52.65,-252.14 -131.68,-634.38 -242.1,-887.57 0,-16.96 17.72,-169.38 66.37,-286.26 96.37,205.43 278.97,714.3 316.25,1128.6 102.19,1475.77 -1297.74,2288.73 -2534.62,2317.47 -1878.56,8.44 -3016.27,-1394.04 -2837.63,-2394.34 51.9,-425.02 152.96,-885.11 386.89,-1232.74l3.71 345.49c-116.99,281.72 -183.91,548.31 -224.47,880.5 -145.18,1115.33 920.08,1980.71 2670.08,2221.52l0 0zm1936.54 -3477.73c-207.11,-508.89 -707.31,-1037.16 -1106.16,-1226.88 33.65,-75 19.6,-43.78 63.58,-140.82 118.36,56.59 201.49,108.48 308.92,185.03 336.23,239.62 606,567.77 796.79,965.27l-63.13 217.39 0 0.01zm-1456.68 -1362.68c-232.27,-54.16 -583.26,-100.63 -796.89,-84.26 -161.91,12.38 -294.63,43.94 -460.83,106.39 -5.44,-55.67 -41.94,-123.47 -53.57,-169.99 163.8,-48.56 332.63,-80.01 503.89,-93.09 265.6,-20.36 599.49,24.63 847.69,98.38 -40.3,142.57 -33.48,98.14 -40.3,142.57l0.01 0zm-2773.13 1049.72c129.11,-228.09 262.76,-428.51 414.95,-578.07 210.68,-207.04 405.8,-373.77 667.54,-494.4l72.92 159.21c-468,168.2 -886.28,747.5 -1120.11,1175.25l-35.3 -261.99 0 0z"/>
   <path class="fil3" d="M5146 3682.86c-52.08,-53.49 -161.78,-21.83 -245.08,70.65 -83.24,92.51 -108.54,210.9 -56.47,264.37 52.08,53.5 161.79,21.87 245.07,-70.65 83.28,-92.52 108.56,-210.86 56.48,-264.37z"/>
   <path class="fil3" d="M3018.43 3703.21c43.5,-69.92 166.25,-64.74 274.17,11.59 107.9,76.35 160.13,194.88 116.63,264.82 -43.53,69.92 -166.26,64.74 -274.17,-11.6 -107.91,-76.33 -160.14,-194.87 -116.63,-264.81l0 0z"/>
   <path class="fil3" d="M4317.72 7268.8c1470.75,-23.81 2288.42,-876.55 2432.43,-1877.33 -275.05,-244.76 -530.57,-315.36 -861.21,-124.41 -190.95,116.29 -469.3,204.94 -654.94,152.39 -274.07,-77.69 -438.18,-474.47 -916.42,-474.47 -478.42,0 -642.55,396.78 -916.6,474.47 -185.64,52.55 -463.87,-36.1 -654.96,-152.39 -397.76,-241.55 -773.76,-126 -1048.64,118.39 52.54,1001.26 1457.09,1939.57 2620.34,1883.35l0 0z"/>
   <g>
    <path class="fil2" d="M3861.83 5533.52c228.32,-89.91 561.2,-162.81 799.75,-18.12 40.89,24.76 63.55,74.12 58.21,124.84 -24.93,237.2 -167.46,420.97 -380.33,478.5 -26.57,7.18 -54.63,7.03 -80.76,-1.71 -257.47,-86.35 -435.81,-243.36 -483.76,-387.7 -26.41,-79.55 14.06,-167.07 86.89,-195.81l0 0z"/>
    <path class="fil3" d="M4526.69 5582.18c-0.19,-30.09 -85.01,-53.83 -189.36,-53.09 -104.41,0.74 -188.84,25.69 -188.65,55.78 0.18,30.09 84.92,53.9 189.33,53.16 104.35,-0.74 188.86,-25.75 188.68,-55.85z"/>
    <path class="fil2" d="M4301.8 6498.26c-6.2,0.04 -12.52,-0.86 -18.78,-2.75 -35.6,-10.82 -56.31,-50.39 -46.18,-88.49 38.68,-145.49 32.4,-308.95 -14.87,-388.75 -19.82,-33.42 -10.54,-77.68 20.73,-98.83 31.32,-21.17 72.68,-11.26 92.48,22.16 78.55,132.51 72,348.93 30.58,504.57 -8.32,31.34 -34.91,51.88 -63.96,52.09l0 0z"/>
    <path class="fil2" d="M3893.51 6645.71c105.98,-137.62 261.55,-245.98 432.73,-251.47 86.2,8.08 167.06,43.34 234.63,87.45 66.08,40.72 122.78,93.18 192.35,121.61 10.68,4.38 16.04,17.13 11.98,28.55 -3.02,8.4 -10.34,13.74 -18.24,14.2 -43.52,2.37 -85,-11.18 -122.69,-25.35 -103.03,-42.51 -198.36,-99.45 -307.9,-110.57 -66.59,0.94 -213.62,50.56 -296.56,106.77 -33.14,19.36 -65.62,41.06 -99.3,62.12 -19.19,13.1 -41.76,-15.01 -27,-33.31l0 0z"/>
   </g>
   <path class="fil1" d="M4810.68 2381.21l45.12 45.92 1672 1914.47c274.03,-1120.03 -197.58,-4730.43 -1492.52,-2400.85 -73.13,131.87 -144.21,271.43 -212.83,415.64 -3.95,8.17 -7.83,16.54 -11.77,24.81l0 0.01z"/>
   <path class="fil2" d="M6547.22 4190.01l24.25 222.26c13.34,13.58 31.02,19.17 48.15,15.23 18.94,-4.35 33.19,-19.16 40.64,-36.62 74.9,-577.43 -92.96,-4370.05 -1219.66,-3145.92 -220.52,239.65 -443,600.03 -680.14,1101.64 -13.87,29.26 -13.66,43.41 7.67,65.19 86.11,16.26 30.73,6.34 86.43,16.58 1402.27,-2730.93 1627.49,-97.28 1692.66,1761.63l0 0.01z"/>
   <path class="fil3" d="M5357.79 2487.51c262.46,-595.51 215.96,-676.72 523.9,-849.5 70.9,-39.75 155.64,2.11 184.91,89.6 254.09,759.43 284.59,1037.37 247.25,1646.74l-956.05 -886.84 -0.01 0z"/>
   <path class="fil2" d="M5927.45 1631.05c14.3,-3.28 29.24,-1.5 43.44,5.22 20.66,9.88 37.23,29.65 45.46,54.18 183.86,549.55 218.99,950.08 259.98,1502.93 -308.12,-349.63 -600.47,-560.03 -873.96,-716.45 182.62,-432.55 253.81,-696.73 507.13,-838.91 5.81,-3.15 11.81,-5.55 17.95,-6.96l0 -0.01zm458.16 2038.38c-1,-669.29 -30.88,-1340.63 -261.95,-2031.3 -20.05,-59.9 -60.26,-108.03 -110.28,-131.8 -50.09,-23.86 -104.37,-22.16 -152.65,5.03 -314.56,176.5 -416.94,501.77 -649.6,1040.68 286.04,152.79 1062.32,741.51 1174.48,1117.39l0 0z"/>
   <g>
    <path class="fil5" d="M6467.28 1492.19c-2.47,5.87 -5.02,13.2 -7.59,21.93 -10.32,34.45 -28.17,61.37 -53.56,80.74 -3.56,2.71 -13.9,8.8 -31,18.26 -10.56,5.84 -20.77,12.28 -30.63,19.27 -2.36,1.71 -3.89,3.67 -4.6,5.85 -0.69,2.06 0.82,4.62 2.86,4.91 45.26,5.92 86.91,-20 112.69,-56.13 17.31,-24.18 24.4,-59.27 18.71,-92.85 -1.51,-8.74 -3.78,-9.38 -6.88,-1.97l0 -0.01zm-158.71 157.18c-5.06,1.51 -9.77,0.63 -10.95,-2.22 1.19,2.9 5.89,3.74 10.95,2.22zm-11.01 -2.37c-0.95,-2.63 1.36,-6.11 5.44,-8.44 -4.08,2.33 -6.4,5.81 -5.44,8.44zm15.42 -10.89c0.15,0.01 0.29,0.03 0.43,0.05 -0.14,-0.02 -0.28,-0.04 -0.43,-0.05zm1.07 0.15c0.61,0.12 1.17,0.3 1.68,0.52 -0.51,-0.22 -1.07,-0.4 -1.68,-0.52zm1.68 0.52c0.17,0.08 0.33,0.16 0.48,0.24 -0.15,-0.08 -0.32,-0.16 -0.48,-0.24zm2.63 3.33c0.01,0.1 0.02,0.21 0.02,0.32 0,-0.11 -0.01,-0.21 -0.02,-0.32zm0.02 0.32c0,2.66 -2.67,5.76 -6.75,7.77 4.09,-2.01 6.76,-5.11 6.75,-7.77zm197.03 274.57c-1.54,-1.31 -2.98,-1.17 -4.29,0.47 -22.7,27.83 -50.62,46.53 -83.66,56.13 -23.68,6.8 -51.86,2.33 -75.15,12.79 -2.99,1.33 -2.77,6.25 0.33,8.35 33.71,22.42 78.79,14.83 108.07,-0.04 29.29,-14.83 47.54,-39.27 55.69,-74.8 0.25,-1 -0.18,-2.22 -0.99,-2.9l0 0zm-93.08 108.77c-218.54,44.98 -247.29,-168.23 -204.71,-254.98 1.99,-4.02 6.49,-5.28 10.61,-3.04l26.71 14.9c3.58,2.02 5.06,5.09 4.39,9.14 -42.39,85.88 -5.48,173.9 95.3,184.85 49.17,0.01 105.8,-12.12 132.86,-58.25 18.72,-101.87 -11.23,-172.27 -77.46,-154.45 -48.17,-100.17 140.35,-62.53 129.85,125.59 -4.52,73.12 -56.48,123.63 -117.56,136.24l0.01 0zm-327.32 -527.7c-3.32,-36.27 40.6,-37.65 46.39,0.66 1.77,11.63 2.43,23.39 6.44,33.85 7.78,20.25 20.69,38.75 38.65,55.37 34.41,23.79 70.47,34.52 108.2,32.28 61.57,-3.76 107.77,-34.01 138.52,-90.65 23.96,-44.23 11.36,-98.44 -29.19,-137.33 -16.46,-15.78 -34.71,-27.76 -54.7,-35.79 -26.78,-7.93 -55.26,-12.75 -85.39,-14.39 -4.91,-0.27 -7.45,-3.13 -7.55,-8.48 -0.03,-1.61 0.48,-2.83 1.57,-3.63 2.32,-1.85 5.4,-3.13 9.22,-3.94 19.72,-4.11 36.89,-4.89 51.52,-2.3 87.97,9.6 183.12,88.19 171.34,199.9 -9.15,86.71 -76.02,131.11 -148.9,139.76 -68.75,8.14 -142.09,-12.33 -198.64,-71.55 -13.17,-13.8 -24.43,-31.04 -33.82,-51.83 -7.82,-14.02 -12.37,-27.98 -13.66,-41.93l0 0z"/>
    <path id="_1" class="fil6" d="M6458.19 1552.7c-2.96,5.82 -6.19,11.37 -9.69,16.65 -9.59,14.45 -21.17,26.85 -34.75,37.22 -2.24,1.69 -6.02,4.12 -11.36,7.26 -4.72,2.78 -11.67,6.71 -20.83,11.77 -0.57,0.32 -1.14,0.64 -1.72,0.96 6.05,-1.75 11.93,-4.08 17.61,-6.91 19.04,-9.48 35.7,-24.52 48.29,-42.17 5.22,-7.29 9.4,-15.7 12.45,-24.78l0 0zm9.09 -60.51c-2.47,5.87 -5.01,13.2 -7.59,21.93 -10.31,34.45 -28.16,61.37 -53.55,80.74 -3.57,2.71 -13.9,8.8 -31.01,18.26 -10.56,5.84 -20.76,12.28 -30.63,19.27 -2.36,1.71 -3.88,3.67 -4.59,5.85 -0.7,2.06 0.81,4.62 2.86,4.91 45.25,5.92 86.9,-20 112.68,-56.13 17.31,-24.18 24.41,-59.27 18.71,-92.85 -1.5,-8.74 -3.77,-9.38 -6.88,-1.97l0 -0.01zm48.13 422.81c-1.54,-1.31 -2.98,-1.17 -4.29,0.47 -22.7,27.83 -50.62,46.53 -83.65,56.13 -23.69,6.8 -51.87,2.33 -75.16,12.79 -2.99,1.33 -2.77,6.25 0.34,8.35 33.71,22.42 78.79,14.83 108.06,-0.04 29.3,-14.83 47.54,-39.27 55.7,-74.8 0.24,-1 -0.19,-2.22 -1,-2.9l0 0zm-93.08 108.77c-218.54,44.98 -247.29,-168.23 -204.7,-254.98 1.98,-4.02 6.49,-5.28 10.6,-3.04l26.71 14.9c3.58,2.02 5.07,5.09 4.39,9.14 -42.38,85.88 -5.48,173.9 95.3,184.85 49.18,0.01 105.81,-12.12 132.86,-58.25 18.73,-101.87 -11.22,-172.27 -77.45,-154.45 -48.17,-100.17 140.34,-62.53 129.85,125.59 -4.53,73.12 -56.49,123.63 -117.56,136.24l0 0zm-327.32 -527.7c-3.32,-36.27 40.6,-37.65 46.4,0.66 1.77,11.63 2.42,23.39 6.43,33.85 7.79,20.25 20.69,38.75 38.65,55.37 34.41,23.79 70.48,34.52 108.2,32.28 61.58,-3.76 107.77,-34.01 138.52,-90.65 23.97,-44.23 11.36,-98.44 -29.19,-137.33 -16.46,-15.78 -34.71,-27.76 -54.69,-35.79 -26.79,-7.93 -55.27,-12.75 -85.4,-14.39 -4.9,-0.27 -7.45,-3.13 -7.55,-8.48 -0.03,-1.61 0.48,-2.83 1.58,-3.63 2.31,-1.85 5.4,-3.13 9.21,-3.94 19.72,-4.11 36.89,-4.89 51.52,-2.3 87.98,9.6 183.13,88.19 171.34,199.9 -9.14,86.71 -76.02,131.11 -148.89,139.76 -68.76,8.14 -142.09,-12.33 -198.64,-71.55 -13.18,-13.8 -24.44,-31.04 -33.83,-51.83 -7.81,-14.02 -12.36,-27.98 -13.66,-41.93l0 0zm381.56 468.79c-13.73,8.69 -28.6,15.36 -44.61,20.01l-0.04 0.02c-11.07,3.17 -22.64,4.05 -34.29,4.93 -5.29,0.4 -10.6,0.8 -15.8,1.44 6.22,1.33 12.61,1.93 19.01,1.92 19.55,-0.01 38.85,-5.53 53.73,-13.1l-0.02 -0.05c8.34,-4.22 15.67,-9.26 22.02,-15.17l0 0zm-50.45 72.35c-59.09,12.16 -105.33,6.03 -140.68,-11.32 -26.23,-12.87 -46.48,-31.88 -61.55,-54.27 -14.93,-22.15 -24.61,-47.41 -29.91,-73.13 -10.37,-50.41 -3.9,-103.24 13,-137.67l0.13 -0.2 0.16 -0.31 0.11 -0.25c2.36,-4.33 6.02,-7.19 10.23,-8.4 4.2,-1.21 8.94,-0.78 13.51,1.48l0.29 0.16 0.36 0.19 0.32 0.15 26.71 14.89 0.07 0.05c4.55,2.56 7.95,6.18 10.18,10.81 2.21,4.61 2.9,9.57 2.03,14.81l-0.34 2.02 -0.76 1.55c-8.43,17.08 -13.47,34.17 -15.24,50.52 -2.35,21.64 1.05,41.89 9.87,58.96 8.78,16.98 23.13,31.19 42.73,40.86 13.05,6.44 28.41,10.89 45.97,12.86 25.97,-0.03 54,-3.59 78.07,-14.14 18.14,-7.95 34,-19.93 44.83,-37.46 6.64,-37.52 6.36,-69.97 -0.17,-94.22 -3.28,-12.2 -8.08,-22.07 -14.29,-29.1 -5.78,-6.54 -13.11,-10.83 -21.9,-12.45 -7.48,-1.37 -15.99,-0.89 -25.49,1.66l-9.45 2.54 -5.18 -10.77c-12.14,-25.25 -11.92,-44.52 -3.93,-57.25 7.03,-11.19 19.78,-16.36 35.21,-15.41 13.72,0.86 29.95,6.67 45.99,17.51 40.15,27.15 79.97,86.42 74.83,178.51l-0.01 0.11c-2.37,38.19 -16.55,70.61 -37.97,95.42 -22.84,26.47 -53.98,44.33 -87.72,51.29l-0.01 0zm-342.99 -541.75c-1.58,-17.33 4.52,-29.35 13.71,-35.68 4.12,-2.83 8.78,-4.47 13.6,-4.9 4.93,-0.44 10.07,0.33 15.04,2.32 12.94,5.19 24.53,18.19 27.71,39.21l-0.01 0c0.54,3.54 0.88,6.18 1.22,8.81 1.01,7.88 2.01,15.65 4.27,21.56 3.36,8.74 7.91,17.21 13.62,25.4 5.6,8.03 12.29,15.68 20.04,22.95 15.73,10.76 31.84,18.59 48.33,23.51 16.83,5.01 34.03,7 51.59,5.95 29.1,-1.77 54.51,-9.77 76.22,-23.97 21.69,-14.2 39.8,-34.67 54.31,-61.41 10.33,-19.06 12.89,-40.09 8.56,-60.43 -4.43,-20.87 -16.14,-41.36 -34.16,-58.64 -7.64,-7.32 -15.62,-13.71 -23.92,-19.15 -8.12,-5.31 -16.78,-9.84 -25.95,-13.55 -12.71,-3.73 -25.85,-6.74 -39.43,-9.02 -13.94,-2.35 -28.18,-3.93 -42.69,-4.72l-0.05 0.01c-5.81,-0.32 -10.66,-2.67 -14.52,-7 -3.98,-4.47 -6.05,-10.1 -6.18,-16.83l-0.04 -0.01c-0.06,-2.82 0.43,-5.46 1.48,-7.88 1.05,-2.43 2.6,-4.4 4.65,-5.89l0 0.01c1.79,-1.38 3.76,-2.51 5.89,-3.42 2.01,-0.85 4.32,-1.54 6.91,-2.09 10.38,-2.16 20.13,-3.46 29.25,-3.87 9.23,-0.41 17.82,0.07 25.75,1.44 50.05,5.55 102.4,32.28 138.42,74.31 31.92,37.24 51.12,86.14 45.15,142.74 -4.62,43.78 -22.79,77.52 -48.84,101.98 -29.14,27.35 -68.19,42.92 -108.95,47.76 -37.36,4.42 -76.09,0.73 -113.03,-12.58 -34.35,-12.38 -67.15,-33.03 -95.92,-63.16 -7.3,-7.66 -14.04,-16.21 -20.22,-25.66 -5.92,-9.08 -11.35,-19.02 -16.29,-29.84 -4.3,-7.76 -7.77,-15.67 -10.4,-23.74 -2.66,-8.17 -4.37,-16.34 -5.12,-24.52l0 0z"/>
   </g>
   <path class="fil7" d="M4825.29 2738.39c-21.85,-5.97 -43.47,-13.37 -66.38,-13.18 -12.15,0.1 -24.29,0.64 -36.26,3.09 -9.19,1.89 -18.47,2.75 -27.81,2.68 -7.68,-0.05 -15.21,1.19 -22.69,2.83 -2.21,0.49 -4.38,1.17 -6.53,1.92 -2.84,1 -5.37,2.62 -4.95,6.33 0.44,3.81 3.3,4.58 6.31,4.57 2.53,-0.01 5.07,-0.32 7.6,-0.44 15.85,-0.74 31.63,-1.14 46.82,5.26 7.35,3.09 13.24,7.57 17.25,15.12 9.42,17.7 24.93,23.22 42.56,21.24 10.22,-1.15 19.53,-1.51 28.5,4.49 3.15,2.1 7,2.24 10.69,2.34 10.03,0.27 18.77,4.24 26.3,11.04 20.34,18.38 39.04,38.47 54.57,61.7 14.3,21.37 28.41,42.87 45.61,61.8 4.65,5.11 4.5,5.8 -0.71,10.85 -9.71,9.41 -17.56,20.4 -24.62,32.13 -11.95,19.83 -22.3,40.58 -31.87,61.81 -6.03,13.4 -13.49,25.83 -22.65,37.04 -14.23,17.41 -24.57,37.56 -35.69,57.16 -6.47,11.41 -7.19,24.68 -10.45,37.12 -0.08,0.29 -0.06,0.6 -0.15,0.89 -8.6,27.8 -10.68,57.43 -20.64,84.84 -6.09,16.74 -7.65,34.03 -5.63,51.63 2.89,25.22 4.37,50.48 4.14,75.88 -0.03,3.47 -0.94,7.97 3.42,9.17 4.28,1.17 5.83,-3 7.24,-6.18 4.46,-10.11 9.5,-19.88 14.61,-29.62 2.51,-4.76 3.84,-10.03 4.27,-15.54 0.33,-4.2 0.86,-8.4 1.22,-12.61 1.27,-14.64 5.17,-28.39 12.21,-41.07 7.11,-12.77 12.25,-26.46 17.01,-40.38 5.42,-15.87 11.26,-31.59 19.07,-46.35 5.06,-9.57 10.99,-18.23 20.72,-23.18 4.45,-2.26 7.56,-6.16 9.3,-11.26 1.75,-5.1 4.07,-9.99 5.54,-15.17 8.88,-31.27 25.37,-57.8 45.02,-82.24 14.97,-18.62 32.96,-33.89 50.23,-49.92 5.07,-4.71 6.82,-4.76 11.66,0.08 35.05,35.06 67.48,72.29 86.27,120.65 4.9,12.6 8.41,25.66 10.85,39.01 1.83,10.01 5.63,18.09 14.37,23.23 4.79,2.83 7.52,8 10.25,13.02 9.06,16.63 13.89,34.97 18.65,53.29 4.48,17.17 8.99,34.27 16.31,50.4 4.89,10.76 7.06,22.41 6.74,34.29 -0.44,16.29 1.28,31.79 9.19,46.2 2.68,4.88 3.9,10.66 5.89,15.99 0.73,1.94 1.46,3.99 2.66,5.61 2.33,3.12 5.93,2.63 7.42,-1.04 0.76,-1.87 0.94,-4.09 1.09,-6.17 1.81,-25.32 5.66,-50.28 10.61,-75.12 3.64,-18.24 3.15,-36.53 -2.1,-54.6 -4.04,-13.9 -6,-28.25 -6.38,-42.81 -0.17,-6.37 -0.89,-12.64 -2.4,-18.8 -2.28,-9.37 -4.17,-18.83 -4.58,-28.52 -0.87,-20.85 -9.33,-38.96 -17.67,-57.14 -5.23,-11.41 -10.88,-22.54 -17.94,-32.79 -12.36,-17.97 -20.11,-38.36 -27.37,-59.03 -7.36,-20.97 -16.63,-41 -27.06,-60.38 -5.8,-10.78 -13.38,-20.16 -21.57,-28.99 -6.34,-6.84 -6.27,-8.49 -0.38,-15.88 1.46,-1.83 3,-3.64 4.71,-5.2 19.8,-18.15 37.03,-38.91 53.87,-60.1 17.5,-22.01 38.14,-40.26 60.13,-56.86 7.64,-5.77 16.38,-8.1 25.59,-8.14 6.03,-0.01 11.84,-0.8 17.36,-3.38 6.58,-3.08 13.2,-3.09 19.81,-0.45 7.76,3.09 15.59,2.4 23.4,0.77 10.08,-2.09 18.69,-7.02 24.28,-16.59 4.5,-7.72 11.19,-11.56 19.09,-13.86 15.68,-4.55 31.35,-3.09 47.08,-0.44 3.05,0.52 6.15,0.83 9.24,0.91 2.12,0.05 3.85,-1.17 4.47,-3.47 0.6,-2.26 -0.18,-4.32 -1.95,-5.55 -2.11,-1.47 -4.37,-2.79 -6.72,-3.73 -7.45,-2.99 -15.29,-4.31 -23.15,-5.26 -11.25,-1.35 -22.27,-3.75 -33.24,-6.76 -22.97,-6.3 -46.27,-7.62 -69.75,-3.79 -22.06,3.59 -44.14,6.85 -64.62,17.45 -8.38,4.34 -17.68,6.17 -27.05,7.1 -5.61,0.56 -11.22,1.44 -16.78,2.45 -17.77,3.22 -33.17,11.34 -46.09,24.99 -16.07,16.98 -31.85,34.24 -46.73,52.44 -11.96,14.61 -24.89,28 -41.28,37.04 -6.96,3.83 -7.34,4.1 -13.2,-1.77 -7.65,-7.65 -14.57,-16.01 -20.67,-25.12 -13,-19.4 -27.31,-37.7 -41.15,-56.4 -15.92,-21.51 -37.1,-32.01 -61.36,-36.7 -11.88,-2.29 -22.95,-6.52 -33.3,-12.77 -9.44,-5.69 -19.25,-10.09 -29.68,-13.11l0 0.01z"/>
   <path class="fil2" d="M4823.85 2743.51l-10.34 -2.9c-18.01,-5.11 -36.05,-10.24 -54.56,-10.09 -5.83,0.04 -11.79,0.21 -17.85,0.66 -5.88,0.44 -11.72,1.18 -17.39,2.34 -4.77,0.96 -9.61,1.69 -14.41,2.15 -4.79,0.44 -9.64,0.66 -14.48,0.62 -3.56,-0.02 -7.15,0.26 -10.7,0.74 -3.48,0.47 -7.15,1.18 -10.84,1.99 -2.47,0.65 -4.79,1.27 -7.16,2.26 2.59,0.06 5.5,-0.24 8.12,-0.41 8.23,-0.37 16.36,-0.66 24.39,-0.04 8.3,0.64 16.59,2.26 24.81,5.72 4.16,1.72 7.94,3.92 11.28,6.73 3.37,2.86 6.3,6.41 8.63,10.81 3.91,7.35 9.01,12.29 14.88,15.22 6.48,3.26 14.15,4.12 22.4,3.21 5.42,-0.61 10.65,-1.01 15.89,-0.44 5.49,0.59 10.88,2.27 16.15,5.8 0.83,0.56 1.93,0.9 3.08,1.09 1.48,0.24 3.19,0.31 4.8,0.35 5.6,0.15 10.86,1.33 15.75,3.38 5.02,2.12 9.69,5.18 13.96,9.03 10.26,9.28 20.16,19.03 29.48,29.44 9.33,10.42 18.07,21.46 25.95,33.25l2.24 3.36c13.4,20.05 26.82,40.13 42.89,57.82 3.36,3.7 4.99,5.99 4.71,9.45 -0.26,3.18 -2.1,5.33 -5.66,8.78 -4.66,4.53 -8.88,9.43 -12.75,14.58 -3.89,5.15 -7.53,10.71 -11.01,16.49 -5.86,9.72 -11.39,19.78 -16.63,30.06 -5.17,10.05 -10.13,20.52 -14.94,31.2 -3.08,6.83 -6.57,13.51 -10.48,19.92 -3.92,6.43 -8.22,12.56 -12.91,18.3 -11.56,14.13 -20.59,30.3 -29.59,46.44l-5.58 9.95c-4.05,7.14 -5.7,15.52 -7.33,23.89 -0.73,3.76 -1.47,7.51 -2.51,11.55l-0.32 1.53c-3.77,12.22 -6.33,25.12 -8.86,37.99 -3.12,15.81 -6.25,31.64 -11.86,47.1 -2.89,7.93 -4.72,16.04 -5.56,24.22 -0.85,8.19 -0.75,16.57 0.21,24.99 1.45,12.64 2.57,25.38 3.27,38.2 0.72,12.66 1.02,25.45 0.91,38.33l-0.05 1.61c-0.04,1.22 -0.79,2.31 -0.45,2.39 0.39,0.1 0.25,-1.5 0.75,-2.66l0.23 -0.51c2.29,-5.21 4.7,-10.25 7.15,-15.18l7.61 -14.79c1.06,-2.01 1.88,-4.11 2.45,-6.23 0.62,-2.29 1.04,-4.71 1.22,-7.23l1.23 -12.67c0.65,-7.62 2.03,-15.08 4.14,-22.32 2.11,-7.2 5.01,-14.17 8.74,-20.87 3.43,-6.19 6.42,-12.64 9.11,-19.21 2.67,-6.53 5.12,-13.38 7.49,-20.3 2.72,-7.98 5.59,-15.97 8.75,-23.88 3.19,-7.94 6.68,-15.75 10.66,-23.25 2.68,-5.08 5.63,-9.96 9.23,-14.26 3.75,-4.48 8.23,-8.36 13.8,-11.18 1.5,-0.76 2.82,-1.83 3.88,-3.14 1.18,-1.42 2.12,-3.15 2.77,-5.09l2.42 -6.43c1.11,-2.82 2.25,-5.68 3.04,-8.49 4.57,-16.04 11.08,-30.91 18.97,-44.84 7.88,-13.91 17.09,-26.9 27.03,-39.28 12.4,-15.41 26.68,-28.46 40.93,-41.47l9.84 -9.03c3.53,-3.27 6.2,-4.93 9.52,-4.93 3.39,-0.02 6.04,1.71 9.5,5.18 17.61,17.59 34.64,35.84 49.72,55.91 15.11,20.08 28.16,41.9 37.74,66.57 2.5,6.44 4.68,13.04 6.51,19.73 1.84,6.62 3.38,13.4 4.62,20.24 0.81,4.43 2.04,8.42 3.97,11.73 1.81,3.13 4.35,5.81 7.88,7.88 5.94,3.52 8.99,9.15 12,14.67l0.24 0.44c4.69,8.63 8.29,17.66 11.3,26.86 2.95,9.02 5.4,18.31 7.79,27.58 2.21,8.49 4.45,17 7.03,25.37 2.52,8.18 5.42,16.28 8.99,24.17 2.59,5.67 4.47,11.62 5.66,17.71 1.21,6.13 1.71,12.5 1.54,18.91 -0.21,7.78 0.1,15.39 1.4,22.76 1.27,7.17 3.52,14.12 7.15,20.75 2,3.66 3.22,7.52 4.42,11.34l2.49 7.21 0.17 -1.97c0.9,-12.74 2.35,-25.48 4.17,-38.12 1.82,-12.71 4.06,-25.26 6.53,-37.67 1.75,-8.85 2.51,-17.72 2.18,-26.47 -0.33,-8.57 -1.7,-17.14 -4.16,-25.62 -2.1,-7.26 -3.67,-14.56 -4.73,-21.86 -1.05,-7.29 -1.67,-14.77 -1.86,-22.29 -0.08,-3.02 -0.3,-6.04 -0.66,-8.96 -0.39,-3 -0.91,-5.93 -1.59,-8.71 -1.18,-4.9 -2.28,-9.77 -3.08,-14.5 -0.83,-4.91 -1.43,-9.95 -1.65,-15.07 -0.81,-19.45 -8.79,-36.88 -16.79,-54.28l-0.4 -0.85c-2.53,-5.55 -5.21,-11.08 -8.14,-16.53 -2.88,-5.36 -5.97,-10.57 -9.35,-15.47 -6.39,-9.32 -11.58,-19.21 -16.09,-29.38 -4.45,-10.08 -8.26,-20.47 -11.92,-30.9 -3.58,-10.24 -7.71,-20.38 -12.21,-30.36 -4.49,-9.94 -9.37,-19.7 -14.52,-29.26 -2.79,-5.19 -5.98,-10.01 -9.42,-14.55 -3.45,-4.53 -7.32,-9 -11.35,-13.34 -4.09,-4.41 -6.12,-7.4 -6.2,-11.26 -0.05,-3.83 1.84,-6.9 5.55,-11.55l2.43 -2.9 2.86 -2.93c9.82,-9 18.95,-18.58 27.63,-28.46 8.81,-10.02 17.29,-20.48 25.66,-31.01 8.93,-11.22 18.66,-21.5 28.92,-31.05 10.26,-9.53 21.06,-18.37 32.17,-26.75 4.31,-3.25 8.98,-5.55 13.86,-7.04 4.82,-1.47 9.85,-2.15 14.93,-2.16 2.71,0 5.39,-0.19 7.93,-0.65 2.46,-0.43 4.87,-1.16 7.18,-2.23 3.99,-1.86 8.04,-2.8 12.06,-2.87 4.01,-0.07 8.03,0.73 11.98,2.3 3.17,1.26 6.44,1.77 9.7,1.77 3.46,0 7.07,-0.54 10.66,-1.28 4.39,-0.9 8.44,-2.42 11.97,-4.73 3.43,-2.25 6.43,-5.32 8.77,-9.33 2.69,-4.6 6.03,-8.05 9.87,-10.68 3.72,-2.55 7.89,-4.3 12.34,-5.6 8.39,-2.44 16.77,-3.26 25.09,-3.13 8.19,0.13 16.3,1.19 24.34,2.54l6.77 0.78 -1.73 -1.07 -2.83 -1.38c-3.39,-1.34 -6.95,-2.34 -10.57,-3.11 -3.6,-0.75 -7.41,-1.32 -11.24,-1.78 -5.66,-0.68 -11.39,-1.66 -17.17,-2.84 -5.53,-1.14 -11.16,-2.53 -16.85,-4.09 -11.11,-3.04 -22.33,-4.9 -33.63,-5.5 -11.23,-0.61 -22.55,0.01 -33.88,1.84l-2.79 0.46c-20.7,3.34 -41.35,6.69 -60.23,16.47 -4.58,2.36 -9.39,4.06 -14.32,5.26 -4.81,1.18 -9.75,1.92 -14.64,2.41l-8.17 1.03 -8.19 1.35c-8.31,1.5 -16.09,4.16 -23.29,8.04 -7.18,3.86 -13.83,8.98 -19.88,15.36 -8.03,8.48 -15.99,17.03 -23.73,25.67 -7.53,8.39 -15.12,17.17 -22.75,26.51 -6.08,7.43 -12.47,14.61 -19.48,21.12 -7.06,6.57 -14.76,12.45 -23.37,17.2l-0.17 0.1c-10.07,5.54 -10.72,5.86 -19.35,-2.76 -3.86,-3.87 -7.65,-8.04 -11.32,-12.49 -3.52,-4.29 -6.87,-8.79 -9.99,-13.44 -9.45,-14.11 -19.65,-27.69 -29.83,-41.25l-11.18 -14.93c-7.47,-10.12 -16.23,-17.68 -25.92,-23.22 -9.76,-5.58 -20.6,-9.2 -32.17,-11.43 -6.17,-1.19 -12.23,-2.92 -18.11,-5.18 -5.8,-2.19 -11.45,-4.97 -16.92,-8.26 -4.56,-2.74 -9.2,-5.18 -13.88,-7.24 -4.29,-1.92 -8.71,-3.56 -13.23,-4.93l-1.28 -0.37zm-7.47 -13.15l10.39 2.92c5.42,1.57 10.71,3.52 15.87,5.8 5.16,2.27 10.19,4.91 15.07,7.85 4.88,2.94 9.98,5.44 15.23,7.46 5.17,2 10.62,3.55 16.33,4.65 12.68,2.44 24.61,6.44 35.46,12.64 10.92,6.24 20.75,14.73 29.16,26.11l11.17 14.91c10.24,13.7 20.54,27.39 30.12,41.7 2.93,4.38 6.08,8.58 9.38,12.61 3.26,3.96 6.84,7.88 10.66,11.7 3,3 3.22,2.88 6.73,0.95l0.17 -0.1c7.75,-4.27 14.75,-9.62 21.21,-15.64 6.53,-6.07 12.62,-12.93 18.48,-20.08 7.23,-8.85 15,-17.82 23.09,-26.83 7.87,-8.79 15.88,-17.39 23.89,-25.87 6.86,-7.27 14.4,-13.07 22.58,-17.46 8.14,-4.4 16.98,-7.42 26.41,-9.13l8.58 -1.43 8.65 -1.08c4.44,-0.44 8.88,-1.11 13.15,-2.15 4.14,-1.01 8.19,-2.43 11.98,-4.39 20.33,-10.53 41.87,-14.03 63.41,-17.51l2.79 -0.46c12.09,-1.96 24.15,-2.61 36.12,-1.97 12.01,0.64 23.99,2.62 35.88,5.89 5.28,1.44 10.69,2.78 16.22,3.92 5.27,1.08 10.71,2 16.27,2.67 3.99,0.47 8.06,1.09 12.18,1.95 4.11,0.86 8.23,2.03 12.31,3.66l4.06 1.96 3.72 2.33c1.81,1.28 3.13,3.02 3.84,5.04 0.68,1.93 0.78,4.09 0.2,6.25 -0.6,2.3 -1.85,4.14 -3.47,5.41 -1.8,1.37 -3.98,2.07 -6.28,2.01l-4.96 -0.3 -5.03 -0.67c-7.64,-1.29 -15.3,-2.3 -22.74,-2.42 -7.35,-0.11 -14.69,0.6 -21.96,2.71 -3.42,0.99 -6.59,2.32 -9.28,4.17 -2.61,1.81 -4.89,4.14 -6.69,7.25 -3.21,5.55 -7.35,9.76 -12.14,12.89 -4.67,3.06 -9.98,5.08 -15.67,6.25 -4.19,0.86 -8.46,1.5 -12.79,1.49 -4.51,-0.01 -9.08,-0.73 -13.64,-2.54 -2.64,-1.04 -5.29,-1.57 -7.87,-1.53 -2.54,0.03 -5.15,0.66 -7.74,1.86 -3.17,1.48 -6.47,2.47 -9.79,3.07 -3.23,0.58 -6.52,0.81 -9.81,0.82 -4.08,0 -8.08,0.53 -11.84,1.68 -3.67,1.12 -7.22,2.89 -10.54,5.39 -10.86,8.19 -21.4,16.81 -31.34,26.05 -9.89,9.21 -19.26,19.1 -27.83,29.87 -8.45,10.64 -17.04,21.2 -26,31.39 -9.06,10.29 -18.48,20.17 -28.44,29.32l-2.06 2.09 -2.08 2.51c-2.14,2.67 -3.24,4.18 -3.25,4.76 0.01,0.47 1.14,1.77 3.36,4.18 4.14,4.45 8.2,9.15 12.01,14.17 3.84,5.05 7.35,10.34 10.34,15.91 5.27,9.8 10.28,19.79 14.86,29.94 4.54,10.07 8.77,20.48 12.52,31.2 3.61,10.23 7.33,20.41 11.64,30.15 4.28,9.66 9.16,19 15.1,27.64 3.68,5.32 6.97,10.85 9.97,16.45 2.96,5.49 5.75,11.26 8.42,17.12l0.41 0.85c8.43,18.38 16.85,36.76 17.76,58.31 0.18,4.54 0.74,9.13 1.52,13.7 0.8,4.71 1.82,9.3 2.91,13.76 0.82,3.35 1.42,6.69 1.82,9.94 0.39,3.32 0.64,6.68 0.72,10 0.18,7.01 0.77,14.04 1.78,21.02 1.01,6.96 2.47,13.8 4.39,20.43 2.71,9.36 4.23,18.79 4.59,28.2 0.36,9.67 -0.45,19.34 -2.36,28.94 -2.47,12.4 -4.68,24.79 -6.44,37.07 -1.79,12.37 -3.19,24.85 -4.09,37.38l-0.36 3.58c-0.2,1.36 -0.55,2.78 -1.13,4.21 -0.82,2.01 -2.03,3.57 -3.44,4.62l-0.1 0.07c-1.28,0.91 -2.68,1.49 -4.14,1.67 -1.41,0.17 -2.91,0 -4.39,-0.6 -1.71,-0.65 -3.28,-1.87 -4.55,-3.59 -1.54,-2.09 -2.42,-4.4 -3.24,-6.6l-2.08 -6.13c-1.05,-3.35 -2.11,-6.72 -3.6,-9.45 -4.25,-7.76 -6.87,-15.8 -8.32,-24.03 -1.41,-8.05 -1.74,-16.35 -1.53,-24.85 0.14,-5.58 -0.3,-11.17 -1.36,-16.61 -1.04,-5.25 -2.67,-10.4 -4.91,-15.34 -3.74,-8.27 -6.78,-16.79 -9.45,-25.45 -2.62,-8.48 -4.89,-17.18 -7.15,-25.83 -2.33,-9.03 -4.73,-18.1 -7.63,-26.97 -2.84,-8.67 -6.2,-17.15 -10.55,-25.11l-0.24 -0.45c-2.29,-4.23 -4.67,-8.56 -8.02,-10.53 -5.22,-3.07 -8.99,-7.03 -11.69,-11.71 -2.61,-4.47 -4.22,-9.58 -5.23,-15.14 -1.17,-6.51 -2.64,-12.97 -4.4,-19.33 -1.73,-6.34 -3.8,-12.59 -6.17,-18.73 -9.19,-23.67 -21.77,-44.67 -36.33,-64.03 -14.57,-19.39 -31.34,-37.33 -48.76,-54.75l-1.97 -2.06 -12.18 11.17c-13.99,12.77 -27.98,25.54 -39.82,40.28 -9.69,12.05 -18.59,24.59 -26.08,37.83 -7.46,13.23 -13.65,27.3 -17.96,42.52 -0.94,3.33 -2.17,6.43 -3.39,9.51l-2.24 5.92c-1.08,3.18 -2.63,6.03 -4.6,8.43 -1.99,2.43 -4.44,4.43 -7.34,5.89 -4.14,2.1 -7.54,5.06 -10.44,8.52 -3.03,3.63 -5.6,7.9 -7.97,12.38 -3.83,7.24 -7.18,14.7 -10.21,22.25 -3.04,7.6 -5.85,15.44 -8.54,23.32 -2.38,6.97 -4.89,13.97 -7.74,20.95 -2.83,6.92 -6,13.74 -9.65,20.31 -3.31,5.97 -5.91,12.23 -7.82,18.72 -1.88,6.44 -3.11,13.22 -3.72,20.23l-1.23 12.55c-0.23,3.1 -0.76,6.21 -1.59,9.25 -0.8,2.91 -1.9,5.75 -3.28,8.38l-7.5 14.53c-2.42,4.9 -4.78,9.83 -6.95,14.74l-0.23 0.49c-2.18,5.02 -4.8,11 -13.29,8.67 -7.81,-2.14 -7.59,-7.86 -7.36,-13.03l0.04 -1.41c0.11,-12.46 -0.2,-24.99 -0.9,-37.57 -0.7,-12.46 -1.79,-24.99 -3.23,-37.55 -1.03,-9.17 -1.15,-18.28 -0.21,-27.29 0.92,-9.02 2.96,-17.97 6.15,-26.76 5.26,-14.51 8.34,-30.04 11.39,-45.52 2.55,-12.94 5.11,-25.9 9.06,-38.77l0.19 -0.96c0.89,-3.45 1.68,-7.4 2.44,-11.33 1.79,-9.17 3.61,-18.4 8.51,-27.05l5.57 -9.94c9.26,-16.56 18.54,-33.18 30.63,-47.99 4.46,-5.46 8.48,-11.19 12.09,-17.11 3.62,-5.94 6.9,-12.22 9.84,-18.75 4.74,-10.53 9.76,-21.09 15.17,-31.65 5.27,-10.39 10.93,-20.66 17,-30.73 3.57,-5.94 7.41,-11.77 11.62,-17.37 4.23,-5.62 8.82,-10.96 13.85,-15.82 1.63,-1.57 2.41,-1.61 2.43,-1.96 0.05,-0.61 -0.69,-0.11 -1.96,-1.5 -16.5,-18.17 -30.17,-38.62 -43.82,-59.06l-2.25 -3.36c-7.65,-11.44 -16.07,-22.08 -25.03,-32.1 -8.99,-10.03 -18.65,-19.54 -28.7,-28.62 -3.39,-3.05 -7.07,-5.48 -10.95,-7.11 -3.74,-1.55 -7.72,-2.45 -11.94,-2.56 -2.03,-0.06 -4.15,-0.13 -6.27,-0.48 -2.47,-0.42 -4.93,-1.24 -7.23,-2.77 -3.65,-2.45 -7.45,-3.62 -11.38,-4.04 -4.23,-0.45 -8.79,-0.09 -13.57,0.44 -10.18,1.14 -19.83,-0.03 -28.31,-4.27 -7.81,-3.85 -14.48,-10.27 -19.53,-19.76 -1.67,-3.15 -3.74,-5.66 -6.12,-7.68 -2.44,-2.06 -5.3,-3.7 -8.49,-5.03 -6.96,-2.95 -14.18,-4.34 -21.51,-4.9 -7.56,-0.59 -15.23,-0.32 -22.9,0.04l-7.94 0.45c-2.31,0.02 -4.68,-0.33 -6.79,-1.55 -2.56,-1.53 -4.39,-3.95 -4.83,-7.73 -0.38,-3.65 0.72,-6.34 2.67,-8.41 1.65,-1.76 3.72,-2.81 5.81,-3.54l3.48 -1.13 3.66 -0.96c3.8,-0.84 7.69,-1.6 11.71,-2.14 3.98,-0.53 8.05,-0.85 12.17,-0.82 4.46,0.02 8.97,-0.17 13.42,-0.59 4.44,-0.42 8.89,-1.08 13.28,-1.98 6.29,-1.29 12.55,-2.07 18.74,-2.54 5.99,-0.45 12.26,-0.62 18.55,-0.66 20.07,-0.16 38.82,5.16 57.51,10.46z"/>
  </g>
 </g>
</svg>
