<svg width="151" height="150" viewBox="0 0 151 150" fill="none" xmlns="http://www.w3.org/2000/svg">
<path fill-rule="evenodd" clip-rule="evenodd" d="M150.019 75.0094C150.019 116.426 116.426 150 75.0094 150C33.5924 150 0 116.426 0 75.0094C0 33.5737 33.5925 0 75.0094 0C116.426 0 150.019 33.5737 150.019 75.0094Z" fill="black"/>
<path fill-rule="evenodd" clip-rule="evenodd" d="M147.204 75.0091C147.204 114.883 114.883 147.204 75.0095 147.204C35.136 147.204 2.81458 114.883 2.81458 75.0091C2.81458 35.1357 35.136 2.7959 75.0095 2.7959C114.883 2.7959 147.204 35.1356 147.204 75.0091Z" fill="#870017"/>
<path fill-rule="evenodd" clip-rule="evenodd" d="M140.784 74.9999C140.784 111.316 111.326 140.775 75.0095 140.775C38.6934 140.775 9.23486 111.316 9.23486 74.9999C9.23486 38.6619 38.6934 9.22534 75.0095 9.22534C111.326 9.22534 140.784 38.6619 140.784 74.9999Z" fill="black"/>
<path fill-rule="evenodd" clip-rule="evenodd" d="M138.491 75C138.491 110.059 110.069 138.481 75.0095 138.481C39.9501 138.481 11.528 110.059 11.528 75C11.528 39.9407 39.9502 11.5186 75.0095 11.5186C110.069 11.5186 138.491 39.9408 138.491 75Z" fill="#B30707"/>
<path d="M64.0001 46.751L63.2747 47.4892L36.5733 74.6961C32.1681 56.6909 39.5726 2.22113 60.3895 39.6704C61.5649 41.7903 62.7077 44.0338 63.8108 46.3521C63.8744 46.4834 63.9368 46.618 64 46.751H64.0001Z" fill="#595959"/>
<path d="M36.0842 75.8285L62.8061 46.4985C40.2637 2.59726 37.1319 45.9453 36.0842 75.8285ZM34.9203 79.6464L34.9121 79.6445C34.6342 79.5773 34.3967 79.3617 34.267 79.0576C33.0629 69.7752 35.7614 8.80648 53.8738 28.4852C57.4187 32.3376 60.9952 38.131 64.8075 46.1946C65.0303 46.665 64.9428 47.2591 64.6 47.6091L35.6944 79.4015C35.4799 79.6198 35.1957 79.7096 34.9203 79.6463V79.6464Z" fill="black"/>
<path d="M57.7258 53.1443C53.5066 43.5711 51.7332 37.5811 46.7829 34.8036C45.6431 34.1645 44.2809 34.8375 43.8104 36.244C39.7257 48.4523 38.1241 61.6983 40.9034 70.2874L57.7258 53.1443Z" fill="white"/>
<path d="M46.0474 34.6919C45.8174 34.639 45.5772 34.6677 45.3491 34.7757C45.017 34.9345 44.7505 35.2523 44.6182 35.6466C40.9875 46.4985 40.2756 59.4203 41.3268 68.3866L56.5516 52.8722C52.6709 44.1137 50.964 37.4015 46.3359 34.8037C46.2425 34.7531 46.146 34.7145 46.0473 34.6919H46.0474ZM40.7294 71.391C40.7107 71.3867 40.6926 71.382 40.6742 71.3763C40.383 71.2869 40.146 71.0338 40.0367 70.6963C37.1183 61.6768 38.7286 47.2533 42.8932 34.8056C43.2155 33.8427 43.8618 33.069 44.666 32.687C45.4712 32.3033 46.3437 32.3306 47.1199 32.7677C52.4104 35.7363 54.4193 43.2506 58.5474 52.6172C58.7531 53.0836 58.6609 53.6611 58.3263 54.0022L41.5034 71.1456C41.2882 71.365 41.0037 71.454 40.7293 71.391H40.7294Z" fill="black"/>
<path d="M77.1424 126.648C52.0946 126.76 33.3585 116.194 31.5696 92.3405C32.1263 90.0257 32.5923 87.6803 32.8832 85.3089C38.8837 36.1593 98.3095 31.0329 109.976 75.6012C110.511 77.6473 111.166 79.6521 111.983 81.5804C113.275 84.6253 114.372 87.5369 115.261 90.3128C116.323 115.526 91.3092 125.681 77.1425 126.648H77.1424Z" fill="#595959"/>
<path d="M60.3345 83.0807C60.5607 87.9518 58.2789 92.0488 55.2394 92.2263C52.1998 92.4038 49.551 88.5947 49.3249 83.7234C49.1807 80.6181 50.0571 77.8244 51.4967 76.1709C53.2197 76.2405 54.9289 76.722 56.4284 77.5981C57.481 78.2127 58.4447 79.0182 59.5961 79.405C59.6179 79.4118 59.6362 79.4188 59.6588 79.425C60.0355 80.5294 60.2734 81.764 60.3346 83.0807H60.3345Z" fill="black"/>
<path d="M63.0547 78.5102C62.7949 78.3603 62.6163 78.5533 62.3822 78.6412C62.099 78.7464 61.8002 78.7816 61.5038 78.8263C60.9043 78.9167 60.3647 78.9142 59.7808 78.7131C58.4151 78.2425 57.2916 77.1624 55.9822 76.5489C54.6 75.9025 53.1346 75.5525 51.6281 75.4689C50.9311 75.4296 50.1347 75.516 49.476 75.7935C49.1391 75.9351 48.8045 76.0924 48.4823 76.2686C48.1959 76.4252 47.8308 76.5078 47.6167 76.7725C47.5532 76.8518 47.591 76.9663 47.6816 76.9922C47.9259 77.0628 48.164 76.9743 48.4137 76.9656C48.7074 76.9551 49.047 76.9627 49.3363 77.0028C49.9279 77.0858 50.5375 77.1544 51.1358 77.184C52.3127 77.2416 53.4494 77.3986 54.5681 77.8135C56.7599 78.6268 58.571 80.7977 61.0397 80.6093C61.6779 80.5609 62.252 80.3401 62.7312 79.8774C62.9889 79.6285 63.5448 78.7914 63.0547 78.5103L63.0547 78.5102Z" fill="black"/>
<path d="M58.4659 82.678C58.3837 80.9092 57.5347 79.521 56.57 79.5773C55.6054 79.6337 54.8896 81.1132 54.9718 82.882C55.0539 84.65 55.9027 86.0384 56.8674 85.9821C57.832 85.9258 58.5479 84.446 58.4659 82.678Z" fill="white"/>
<path d="M53.9775 90.3673C53.3683 90.4028 52.6189 89.7558 52.1771 88.7542C51.6602 87.5819 51.7608 86.3674 52.4014 86.0415C52.4949 85.9948 52.5947 85.9682 52.6991 85.9621C53.3073 85.9266 54.0567 86.5736 54.4987 87.576C55.0156 88.7483 54.9148 89.9621 54.2742 90.2879C54.1809 90.3355 54.081 90.3613 53.9775 90.3673L53.9775 90.3673Z" fill="#5959A3"/>
<path d="M97.4896 81.2953C97.7026 85.8833 95.6615 89.7339 92.9285 89.8934C90.1994 90.0528 87.8129 86.4607 87.5999 81.8728C87.5946 81.7578 87.5892 81.6426 87.5907 81.5272C87.7068 81.4295 87.8137 81.3197 87.9106 81.1985C88.3055 80.6947 88.5012 80.048 88.7538 79.4491C89.2784 78.2068 90.0724 77.1272 90.8984 76.102C91.5516 75.2887 92.2463 74.4856 93.1097 73.9619C93.3258 73.8302 93.5535 73.7215 93.7863 73.637C95.7835 74.6445 97.3207 77.6575 97.4896 81.2954V81.2953Z" fill="black"/>
<path d="M84.5067 81.7509C84.6555 82.3295 85.2514 82.5336 85.726 82.7048C86.2571 82.8972 86.9096 82.9774 87.4448 82.7568C88.8505 82.1777 89.1671 80.538 89.8301 79.2796C90.5262 77.9588 91.5065 76.7041 92.5357 75.6632C93.0025 75.1915 93.5393 74.7489 94.1151 74.4394C94.4021 74.2852 94.7144 74.1389 95.0312 74.0694C95.3561 73.9987 95.7054 74.0515 96.0212 73.9494C96.1236 73.9161 96.1557 73.7855 96.1049 73.6945C95.8074 73.1594 95.0249 73.0394 94.4992 73.0066C93.7666 72.9599 93.0658 73.1967 92.4313 73.5806C91.2273 74.3099 90.2637 75.6575 89.4345 76.8148C88.9917 77.4322 88.5745 78.0794 88.2382 78.7699C87.9315 79.398 87.7647 80.1466 87.3719 80.7221C87.1222 81.0872 86.6223 81.3981 86.2342 81.5532C85.6739 81.7766 85.2576 81.4585 84.7063 81.4397C84.5544 81.4344 84.4722 81.6154 84.5068 81.7509H84.5067Z" fill="black"/>
<path d="M93.0413 81.4967C92.9706 79.9727 92.2386 78.7766 91.4071 78.8252C90.5757 78.8737 89.9592 80.1485 90.0299 81.6725C90.1007 83.1964 90.8319 84.3925 91.6634 84.344C92.4948 84.2955 93.1121 83.0206 93.0414 81.4967H93.0413Z" fill="white"/>
<path d="M94.2998 87.441C94.2362 87.4447 94.1729 87.4387 94.1106 87.4216C93.5447 87.2706 93.2867 86.3063 93.5341 85.2674C93.7542 84.3427 94.3006 83.671 94.8171 83.6409C94.8812 83.6371 94.9446 83.6439 95.007 83.6602C95.5728 83.8112 95.8307 84.7756 95.5833 85.8144C95.3632 86.7392 94.8162 87.4109 94.2998 87.441V87.441Z" fill="#5959A3"/>
<path d="M75.6784 125.628C100.678 124.935 114.48 104.921 114.188 91.9871C113.341 87.9338 112.071 81.789 110.296 77.7188C110.296 77.4461 110.581 74.996 111.363 73.117C112.912 76.4195 115.848 84.5999 116.447 91.26C118.089 114.984 95.5848 128.053 75.7012 128.515C45.5024 128.65 27.213 106.105 30.0847 90.0243C30.919 83.1919 32.5437 75.7956 36.3042 70.2073L36.3639 75.7611C34.4832 80.2901 33.4074 84.5757 32.7554 89.9157C30.4216 107.845 47.5462 121.757 75.6784 125.628ZM106.809 69.7214C103.48 61.5407 95.439 53.0485 89.0273 49.9986C89.5683 48.793 89.3423 49.2948 90.0494 47.7348C91.9521 48.6447 93.2885 49.4787 95.0155 50.7093C100.421 54.5614 104.757 59.8366 107.824 66.2266L106.809 69.7214V69.7214ZM83.3925 47.8156C79.6586 46.9449 74.0162 46.198 70.5819 46.461C67.9791 46.6601 65.8457 47.1674 63.1739 48.1714C63.0865 47.2764 62.4997 46.1865 62.3128 45.4387C64.9459 44.6579 67.66 44.1525 70.413 43.9421C74.6828 43.6149 80.0502 44.3382 84.0401 45.5236C83.3924 47.8156 83.502 47.1014 83.3924 47.8156L83.3925 47.8156ZM38.8128 64.6904C40.8883 61.0237 43.0369 57.8019 45.4834 55.3976C48.8702 52.0693 52.0069 49.389 56.2145 47.4498L57.3867 50.0093C49.8633 52.7131 43.1393 62.0258 39.3803 68.9021L38.8128 64.6904Z" fill="black"/>
<path d="M88.0827 67.9494C87.2456 67.0895 85.482 67.5984 84.143 69.0851C82.8049 70.5723 82.3981 72.4754 83.2351 73.335C84.0723 74.195 85.836 73.6866 87.1748 72.1992C88.5135 70.712 88.9199 68.8095 88.0827 67.9494Z" fill="white"/>
<path d="M53.8807 68.2765C54.5801 67.1525 56.5535 67.2357 58.2882 68.4629C60.0229 69.6901 60.8625 71.5956 60.1631 72.7199C59.4634 73.8439 57.4904 73.7606 55.7558 72.5335C54.021 71.3063 53.1813 69.4008 53.8807 68.2765Z" fill="white"/>
<path d="M74.7677 125.595C98.4108 125.213 111.555 111.504 113.87 95.4161C109.449 91.4814 105.341 90.3465 100.026 93.4162C96.9563 95.2856 92.4818 96.7107 89.4975 95.866C85.0915 94.617 82.4535 88.2385 74.7654 88.2385C67.0745 88.2385 64.436 94.617 60.0306 95.866C57.0463 96.7107 52.5736 95.2856 49.5016 93.4162C43.1074 89.5332 37.063 91.3906 32.6442 95.3193C33.4887 111.415 56.0677 126.499 74.7677 125.595V125.595Z" fill="white"/>
<path d="M67.4389 97.6998C71.1093 96.2544 76.4606 95.0826 80.2953 97.4085C80.9527 97.8066 81.317 98.6 81.2311 99.4154C80.8303 103.229 78.5391 106.183 75.117 107.108C74.6899 107.223 74.239 107.221 73.8188 107.08C69.6799 105.692 66.8129 103.168 66.0421 100.848C65.6176 99.5688 66.2681 98.1618 67.4389 97.6998L67.4389 97.6998Z" fill="black"/>
<path d="M78.1269 98.482C78.1239 97.9983 76.7604 97.6165 75.083 97.6284C73.4045 97.6404 72.0471 98.0415 72.0501 98.5252C72.0531 99.0089 73.4154 99.3917 75.0938 99.3798C76.7713 99.3679 78.1299 98.9657 78.1269 98.482Z" fill="white"/>
<path d="M74.5117 113.208C74.4121 113.209 74.3105 113.195 74.2098 113.164C73.6375 112.99 73.3045 112.354 73.4674 111.742C74.0892 109.403 73.9882 106.775 73.2284 105.492C72.9097 104.955 73.059 104.244 73.5617 103.904C74.0652 103.563 74.73 103.723 75.0484 104.26C76.3111 106.39 76.2058 109.869 75.54 112.371C75.4062 112.875 74.9788 113.205 74.5117 113.208H74.5117Z" fill="black"/>
<path d="M67.9482 115.579C69.652 113.367 72.1527 111.625 74.9046 111.536C76.2903 111.666 77.5901 112.233 78.6764 112.942C79.7387 113.597 80.6502 114.44 81.7685 114.897C81.9402 114.968 82.0264 115.173 81.9611 115.356C81.9127 115.491 81.7949 115.577 81.6679 115.584C80.9683 115.623 80.3014 115.405 79.6956 115.177C78.0393 114.494 76.5068 113.578 74.7459 113.399C73.6755 113.415 71.3119 114.212 69.9786 115.116C69.4459 115.427 68.9237 115.776 68.3823 116.114C68.0738 116.325 67.711 115.873 67.9482 115.579Z" fill="black"/>
<path d="M82.6922 47.0244L83.4175 47.7626L110.296 78.5389C114.701 60.5338 107.12 2.49447 86.3028 39.9438C85.1273 42.0637 83.9846 44.3072 82.8815 46.6255C82.8179 46.7568 82.7555 46.8914 82.6922 47.0244H82.6922Z" fill="#595959"/>
<path d="M110.608 76.1019L110.998 79.6749C111.212 79.8932 111.497 79.983 111.772 79.9198C112.076 79.8499 112.306 79.6117 112.425 79.331C113.629 70.0486 110.931 9.07993 92.8185 28.7586C89.2736 32.611 85.6971 38.4044 81.8849 46.4681C81.662 46.9384 81.6654 47.166 82.0082 47.516C83.3925 47.7775 82.5022 47.6179 83.3976 47.7825C105.94 3.88133 109.56 46.2187 110.608 76.1018V76.1019Z" fill="black"/>
<path d="M91.4874 48.7335C95.7066 39.1602 94.9591 37.8548 99.9095 35.0773C101.049 34.4382 102.411 35.1112 102.882 36.5176C106.967 48.7259 107.457 53.1939 106.857 62.9899L91.4875 48.7335H91.4874Z" fill="white"/>
<path d="M100.645 34.9653C100.875 34.9125 101.115 34.9412 101.343 35.0492C101.675 35.2079 101.942 35.5258 102.074 35.9201C105.03 44.7544 105.594 51.1932 106.253 60.0807C101.3 54.4601 96.6005 51.0778 92.2039 48.5633C95.1397 41.6098 96.2842 37.3629 100.356 35.0772C100.45 35.0267 100.546 34.988 100.645 34.9654L100.645 34.9653ZM108.01 67.7333C107.994 56.9741 107.514 46.182 103.799 35.0791C103.477 34.1161 102.83 33.3424 102.026 32.9604C101.221 32.5767 100.349 32.604 99.5724 33.0411C94.5157 35.8785 92.8698 41.1075 89.1297 49.7706C93.7279 52.2268 106.207 61.6909 108.01 67.7333Z" fill="black"/>
<path d="M109.323 32.733C109.283 32.8274 109.242 32.9451 109.201 33.0855C109.035 33.6394 108.748 34.072 108.34 34.3835C108.283 34.427 108.117 34.5249 107.842 34.677C107.672 34.7709 107.508 34.8744 107.349 34.9868C107.311 35.0142 107.287 35.0458 107.275 35.0807C107.264 35.114 107.289 35.1551 107.321 35.1598C108.049 35.255 108.718 34.8382 109.133 34.2575C109.411 33.8688 109.525 33.3046 109.434 32.7648C109.409 32.6243 109.373 32.6139 109.323 32.7331L109.323 32.733ZM106.772 35.2598C106.69 35.284 106.615 35.2698 106.596 35.224C106.615 35.2706 106.69 35.2841 106.772 35.2598ZM106.595 35.2216C106.579 35.1793 106.617 35.1234 106.682 35.0859C106.616 35.1234 106.579 35.1793 106.595 35.2216ZM106.86 35.049C106.87 35.0509 106.879 35.0537 106.887 35.0574C106.879 35.0537 106.87 35.0509 106.86 35.049ZM106.887 35.0574C106.889 35.0586 106.892 35.0599 106.895 35.0613C106.892 35.0599 106.889 35.0586 106.887 35.0574ZM106.929 35.1109C106.929 35.1126 106.929 35.1143 106.929 35.116C106.929 35.1143 106.929 35.1126 106.929 35.1109ZM106.929 35.116C106.929 35.1588 106.886 35.2087 106.821 35.2408C106.887 35.2087 106.93 35.1588 106.929 35.116ZM110.097 39.5299C110.072 39.5089 110.049 39.5111 110.028 39.5375C109.663 39.9849 109.214 40.2854 108.683 40.4398C108.302 40.549 107.849 40.4772 107.475 40.6454C107.427 40.6667 107.43 40.7458 107.48 40.7796C108.022 41.14 108.747 41.0181 109.217 40.7789C109.688 40.5406 109.982 40.1476 110.113 39.5766C110.117 39.5605 110.11 39.5409 110.097 39.5299L110.097 39.5299ZM108.6 41.2784C105.087 42.0016 104.625 38.5741 105.31 37.1795C105.342 37.1148 105.414 37.0946 105.48 37.1306L105.91 37.3701C105.967 37.4026 105.991 37.452 105.98 37.517C105.299 38.8977 105.892 40.3126 107.512 40.4886C108.303 40.4888 109.213 40.2938 109.648 39.5523C109.949 37.9147 109.467 36.7829 108.403 37.0694C107.628 35.4591 110.659 36.0641 110.49 39.0882C110.417 40.2638 109.582 41.0757 108.6 41.2784H108.6ZM103.339 32.7954C103.285 32.2122 103.991 32.1901 104.084 32.8059C104.113 32.993 104.123 33.182 104.188 33.3501C104.313 33.6757 104.52 33.973 104.809 34.2403C105.362 34.6226 105.942 34.7952 106.549 34.7591C107.538 34.6987 108.281 34.2125 108.775 33.3019C109.161 32.5909 108.958 31.7195 108.306 31.0942C108.042 30.8406 107.748 30.648 107.427 30.5188C106.996 30.3913 106.538 30.314 106.054 30.2876C105.975 30.2832 105.934 30.2372 105.933 30.1513C105.932 30.1254 105.94 30.1057 105.958 30.093C105.995 30.0632 106.045 30.0426 106.106 30.0296C106.423 29.9635 106.699 29.9509 106.934 29.9925C108.349 30.1469 109.878 31.4102 109.689 33.2061C109.542 34.6 108.467 35.3138 107.295 35.4528C106.19 35.5837 105.011 35.2545 104.102 34.3026C103.89 34.0808 103.709 33.8036 103.558 33.4695C103.433 33.2441 103.359 33.0197 103.339 32.7954L103.339 32.7954Z" fill="#D2B107"/>
<path fill-rule="evenodd" clip-rule="evenodd" d="M109.177 33.7057C109.129 33.7992 109.077 33.8884 109.021 33.9734C108.867 34.2056 108.681 34.405 108.462 34.5716C108.427 34.5989 108.366 34.6379 108.28 34.6884C108.204 34.7331 108.092 34.7962 107.945 34.8776C107.936 34.8827 107.927 34.8878 107.917 34.893C108.015 34.8648 108.109 34.8274 108.2 34.7819C108.507 34.6294 108.774 34.3878 108.977 34.1039C109.061 33.9867 109.128 33.8517 109.177 33.7056L109.177 33.7057ZM109.323 32.733C109.283 32.8273 109.242 32.9451 109.201 33.0854C109.035 33.6393 108.748 34.072 108.34 34.3834C108.283 34.427 108.117 34.5248 107.842 34.6769C107.672 34.7708 107.508 34.8744 107.349 34.9868C107.311 35.0142 107.287 35.0457 107.275 35.0807C107.264 35.1139 107.289 35.155 107.321 35.1597C108.049 35.2549 108.718 34.8382 109.133 34.2574C109.411 33.8687 109.525 33.3046 109.434 32.7647C109.409 32.6242 109.373 32.6139 109.323 32.733L109.323 32.733ZM110.097 39.5298C110.072 39.5088 110.049 39.5111 110.028 39.5374C109.663 39.9848 109.214 40.2854 108.683 40.4397C108.302 40.549 107.849 40.4771 107.475 40.6453C107.427 40.6666 107.43 40.7458 107.48 40.7795C108.022 41.1399 108.747 41.018 109.217 40.7789C109.688 40.5405 109.982 40.1475 110.113 39.5765C110.117 39.5604 110.11 39.5408 110.097 39.5299L110.097 39.5298ZM108.6 41.2783C105.087 42.0015 104.625 38.574 105.31 37.1794C105.342 37.1148 105.414 37.0945 105.48 37.1306L105.91 37.37C105.967 37.4025 105.991 37.452 105.98 37.517C105.299 38.8976 105.892 40.3125 107.512 40.4885C108.303 40.4888 109.213 40.2937 109.648 39.5522C109.949 37.9146 109.467 36.7829 108.403 37.0693C107.628 35.459 110.659 36.064 110.49 39.0882C110.417 40.2637 109.582 41.0757 108.6 41.2783H108.6ZM103.339 32.7953C103.285 32.2122 103.991 32.19 104.084 32.8059C104.113 32.9929 104.123 33.1819 104.188 33.35C104.313 33.6757 104.52 33.973 104.809 34.2402C105.362 34.6225 105.942 34.7951 106.549 34.7591C107.538 34.6987 108.281 34.2124 108.775 33.3018C109.161 32.5909 108.958 31.7194 108.306 31.0942C108.042 30.8405 107.748 30.6479 107.427 30.5188C106.996 30.3913 106.538 30.3139 106.054 30.2875C105.975 30.2831 105.934 30.2372 105.933 30.1512C105.932 30.1254 105.94 30.1057 105.958 30.0929C105.995 30.0631 106.045 30.0425 106.106 30.0296C106.423 29.9634 106.699 29.9508 106.934 29.9925C108.349 30.1468 109.878 31.4102 109.689 33.206C109.542 34.6 108.467 35.3137 107.295 35.4528C106.19 35.5836 105.011 35.2545 104.102 34.3025C103.89 34.0807 103.709 33.8035 103.558 33.4694C103.433 33.244 103.359 33.0196 103.339 32.7953L103.339 32.7953ZM109.472 40.3313C109.252 40.471 109.013 40.5783 108.755 40.6531L108.755 40.6533C108.577 40.7043 108.391 40.7184 108.203 40.7326C108.118 40.739 108.033 40.7455 107.949 40.7557C108.049 40.7771 108.152 40.7867 108.255 40.7866C108.569 40.7865 108.879 40.6977 109.119 40.5761L109.118 40.5752C109.252 40.5074 109.37 40.4263 109.472 40.3313H109.472ZM108.661 41.4944C107.712 41.6899 106.968 41.5914 106.4 41.3125C105.978 41.1055 105.653 40.7999 105.41 40.4401C105.17 40.0839 105.015 39.6779 104.93 39.2644C104.763 38.454 104.867 37.6047 105.139 37.0512L105.141 37.048L105.143 37.0431L105.145 37.039C105.183 36.9695 105.242 36.9234 105.309 36.904C105.377 36.8846 105.453 36.8915 105.527 36.9278L105.531 36.9304L105.537 36.9334L105.542 36.9358L105.972 37.1753L105.973 37.176C106.046 37.2172 106.101 37.2754 106.136 37.3497C106.172 37.424 106.183 37.5036 106.169 37.5879L106.164 37.6204L106.151 37.6452C106.016 37.9199 105.935 38.1945 105.906 38.4575C105.868 38.8053 105.923 39.1309 106.065 39.4052C106.206 39.6782 106.437 39.9066 106.752 40.062C106.962 40.1656 107.209 40.2371 107.491 40.2688C107.908 40.2683 108.359 40.211 108.746 40.0415C109.038 39.9136 109.293 39.7211 109.467 39.4393C109.573 38.8362 109.569 38.3145 109.464 37.9246C109.411 37.7285 109.334 37.5699 109.234 37.4568C109.141 37.3517 109.023 37.2827 108.882 37.2568C108.762 37.2346 108.625 37.2423 108.472 37.2834L108.32 37.3243L108.237 37.1511C108.042 36.7453 108.045 36.4354 108.174 36.2308C108.287 36.0509 108.492 35.9677 108.74 35.9831C108.961 35.9968 109.221 36.0902 109.479 36.2645C110.125 36.701 110.765 37.6538 110.682 39.1341L110.682 39.1359C110.644 39.7499 110.416 40.271 110.072 40.6699C109.705 41.0954 109.204 41.3825 108.661 41.4944L108.661 41.4944ZM103.148 32.7854C103.122 32.5068 103.22 32.3137 103.368 32.212C103.434 32.1664 103.509 32.14 103.587 32.1331C103.666 32.1261 103.749 32.1384 103.828 32.1704C104.036 32.2538 104.223 32.4628 104.274 32.8008H104.274C104.282 32.8576 104.288 32.9001 104.293 32.9423C104.309 33.069 104.326 33.1939 104.362 33.2889C104.416 33.4294 104.489 33.5656 104.581 33.6972C104.671 33.8263 104.778 33.9494 104.903 34.0662C105.156 34.2391 105.415 34.365 105.68 34.4441C105.951 34.5247 106.227 34.5566 106.509 34.5398C106.977 34.5113 107.386 34.3828 107.735 34.1544C108.083 33.9263 108.374 33.5971 108.608 33.1673C108.774 32.8608 108.815 32.5228 108.745 32.1959C108.674 31.8603 108.486 31.531 108.196 31.2532C108.073 31.1355 107.945 31.0328 107.812 30.9454C107.681 30.86 107.542 30.7872 107.394 30.7275C107.19 30.6676 106.979 30.6192 106.761 30.5824C106.536 30.5446 106.308 30.5193 106.074 30.5066L106.074 30.5068C105.98 30.5016 105.902 30.4638 105.84 30.3942C105.776 30.3223 105.743 30.2319 105.741 30.1237L105.74 30.1236C105.739 30.0781 105.747 30.0357 105.764 29.9968C105.781 29.9579 105.806 29.9261 105.839 29.9022L105.839 29.9024C105.867 29.8802 105.899 29.8619 105.933 29.8473C105.966 29.8337 106.003 29.8225 106.044 29.8138C106.211 29.7789 106.368 29.7582 106.515 29.7516C106.663 29.7449 106.801 29.7526 106.929 29.7746C107.733 29.8639 108.575 30.2936 109.154 30.9692C109.667 31.5679 109.976 32.3539 109.88 33.2639C109.805 33.9677 109.513 34.5101 109.094 34.9032C108.626 35.3429 107.998 35.5932 107.343 35.671C106.742 35.7421 106.12 35.6827 105.526 35.4688C104.974 35.2699 104.447 34.9378 103.984 34.4534C103.867 34.3304 103.758 34.1929 103.659 34.0409C103.564 33.895 103.476 33.7352 103.397 33.5613C103.328 33.4366 103.272 33.3094 103.23 33.1797C103.187 33.0484 103.16 32.9169 103.148 32.7854H103.148Z" fill="black"/>
<path d="M82.9271 52.7664C82.5759 52.6704 82.2284 52.5514 81.86 52.5545C81.6648 52.5561 81.4696 52.5648 81.2771 52.6042C81.1293 52.6345 80.9802 52.6484 80.83 52.6473C80.7066 52.6464 80.5856 52.6664 80.4654 52.6928C80.4299 52.7006 80.3948 52.7115 80.3603 52.7237C80.3147 52.7397 80.274 52.7658 80.2808 52.8254C80.2878 52.8866 80.3337 52.899 80.3821 52.8988C80.4229 52.8987 80.4636 52.8936 80.5044 52.8917C80.7592 52.8799 81.0128 52.8735 81.257 52.9762C81.3752 53.026 81.4698 53.0979 81.5343 53.2193C81.6857 53.5038 81.9351 53.5926 82.2185 53.5608C82.3828 53.5424 82.5325 53.5365 82.6767 53.6329C82.7272 53.6667 82.7893 53.669 82.8486 53.6706C83.0098 53.6749 83.1503 53.7388 83.2713 53.848C83.5982 54.1435 83.8989 54.4664 84.1486 54.8399C84.3784 55.1834 84.6052 55.5291 84.8818 55.8334C84.9565 55.9155 84.9541 55.9267 84.8704 56.0078C84.7142 56.1591 84.5882 56.3357 84.4746 56.5243C84.2825 56.8431 84.1161 57.1767 83.9623 57.518C83.8653 57.7333 83.7453 57.9333 83.5981 58.1134C83.3695 58.3932 83.2032 58.7172 83.0244 59.0323C82.9203 59.2157 82.9089 59.429 82.8564 59.629C82.8552 59.6336 82.8554 59.6387 82.854 59.6433C82.7158 60.0903 82.6823 60.5665 82.5222 61.0071C82.4244 61.2763 82.3992 61.5541 82.4316 61.8372C82.4781 62.2425 82.502 62.6487 82.4983 63.0569C82.4977 63.1128 82.4832 63.1851 82.5533 63.2043C82.6221 63.2232 82.647 63.1562 82.6696 63.1051C82.7414 62.9426 82.8223 62.7855 82.9045 62.6289C82.9448 62.5523 82.9663 62.4676 82.9732 62.3791C82.9784 62.3115 82.9869 62.2441 82.9928 62.1764C83.0131 61.941 83.0758 61.7199 83.1891 61.5161C83.3033 61.3108 83.3859 61.0907 83.4624 60.8669C83.5496 60.6118 83.6435 60.3591 83.769 60.1218C83.8504 59.968 83.9457 59.8288 84.1021 59.7493C84.1737 59.7129 84.2237 59.6502 84.2517 59.5682C84.2797 59.4862 84.3171 59.4076 84.3407 59.3243C84.4834 58.8216 84.7485 58.3952 85.0645 58.0022C85.305 57.703 85.5942 57.4575 85.8718 57.1998C85.9534 57.1241 85.9815 57.1233 86.0593 57.2011C86.6227 57.7647 87.1442 58.3632 87.4462 59.1406C87.5249 59.3432 87.5814 59.5531 87.6206 59.7677C87.65 59.9286 87.7111 60.0585 87.8516 60.1412C87.9286 60.1866 87.9724 60.2698 88.0163 60.3504C88.162 60.6179 88.2396 60.9126 88.3162 61.2071C88.3881 61.4832 88.4606 61.758 88.5784 62.0174C88.657 62.1903 88.6918 62.3776 88.6866 62.5686C88.6796 62.8304 88.7074 63.0797 88.8344 63.3113C88.8775 63.3897 88.8972 63.4826 88.9291 63.5683C88.9408 63.5996 88.9527 63.6325 88.9719 63.6584C89.0093 63.7087 89.0672 63.7008 89.0912 63.6418C89.1035 63.6117 89.1063 63.5761 89.1087 63.5427C89.1378 63.1356 89.1997 62.7343 89.2793 62.3351C89.3378 62.0418 89.3299 61.7477 89.2455 61.4572C89.1806 61.2338 89.1491 61.0031 89.1429 60.769C89.1402 60.6667 89.1286 60.566 89.1044 60.4668C89.0677 60.3163 89.0373 60.1641 89.0308 60.0084C89.0168 59.6733 88.8808 59.3821 88.7468 59.0898C88.6627 58.9064 88.5717 58.7275 88.4583 58.5627C88.2595 58.2738 88.135 57.9461 88.0183 57.6137C87.8999 57.2767 87.751 56.9547 87.5832 56.6431C87.49 56.4698 87.3682 56.319 87.2365 56.177C87.1347 56.0672 87.1358 56.0406 87.2304 55.9219C87.2539 55.8924 87.2786 55.8634 87.3061 55.8382C87.6244 55.5464 87.9015 55.2127 88.1722 54.8721C88.4534 54.5182 88.7853 54.2249 89.1388 53.958C89.2616 53.8653 89.402 53.8277 89.5501 53.8272C89.647 53.8269 89.7406 53.8143 89.8292 53.7729C89.935 53.7234 90.0414 53.7232 90.1477 53.7656C90.2724 53.8153 90.3983 53.8042 90.5239 53.7781C90.686 53.7444 90.8244 53.6651 90.9141 53.5112C90.9865 53.3872 91.0941 53.3254 91.2211 53.2885C91.4731 53.2153 91.7251 53.2389 91.9778 53.2815C92.0269 53.2898 92.0768 53.2948 92.1265 53.296C92.1605 53.2968 92.1883 53.2772 92.1982 53.2403C92.208 53.2039 92.1954 53.1708 92.1669 53.151C92.133 53.1274 92.0967 53.1061 92.0589 53.091C91.9391 53.0429 91.8131 53.0217 91.6868 53.0065C91.5059 52.9847 91.3288 52.9462 91.1524 52.8978C90.7831 52.7965 90.4085 52.7754 90.0311 52.8368C89.6765 52.8945 89.3215 52.947 88.9923 53.1174C88.8575 53.1872 88.7081 53.2165 88.5576 53.2316C88.4672 53.2406 88.3772 53.2547 88.2877 53.2709C88.0021 53.3227 87.7545 53.4531 87.5468 53.6726C87.2884 53.9456 87.0348 54.2231 86.7956 54.5156C86.6034 54.7506 86.3955 54.9658 86.132 55.111C86.0201 55.1726 86.0141 55.1769 85.9198 55.0827C85.7969 54.9597 85.6857 54.8253 85.5875 54.6788C85.3785 54.3669 85.1484 54.0728 84.926 53.7721C84.6701 53.4263 84.3296 53.2575 83.9396 53.1822C83.7486 53.1454 83.5707 53.0773 83.4042 52.9769C83.2526 52.8854 83.0948 52.8147 82.9271 52.7662L82.9271 52.7664Z" fill="#BFBFBF" stroke="black" stroke-width="0.378203" stroke-miterlimit="22.9256"/>
</svg>
