<?xml version="1.0" encoding="UTF-8"?>
<!DOCTYPE svg PUBLIC "-//W3C//DTD SVG 1.1//EN" "http://www.w3.org/Graphics/SVG/1.1/DTD/svg11.dtd">
<!-- Creator: CorelDRAW -->
<svg xmlns="http://www.w3.org/2000/svg" xml:space="preserve" width="40.455mm" height="7.8394mm" version="1.1" style="shape-rendering:geometricPrecision; text-rendering:geometricPrecision; image-rendering:optimizeQuality; fill-rule:evenodd; clip-rule:evenodd"
viewBox="0 0 1909.72 370.07"
 xmlns:xlink="http://www.w3.org/1999/xlink"
 xmlns:xodm="http://www.corel.com/coreldraw/odm/2003">
 <defs>
  <style type="text/css">
   <![CDATA[
    .fil1 {fill:white}
    .fil0 {fill:white;fill-rule:nonzero}
   ]]>
  </style>
 </defs>
 <g id="Layer_x0020_1">
  <metadata id="CorelCorpID_0Corel-Layer"/>
  <g id="_1610040573632">
   <path class="fil0" d="M273.4 308.45l-218.71 0 0 -218.71 -54.68 0 0 273.4 273.4 0 0 -54.68zm669.79 -109.36l-67.54 -0.06 -0.32 53.29 13.17 -0.3 0 56.42 -164.03 0 0 -164.03 218.71 0 0 -54.68 -273.4 0 0 273.4 273.4 0 0 -164.04zm-333.8 -54.67l0 -54.68 -273.4 0 0 54.68 273.4 0zm0 109.36l0 -54.68 -273.4 0 0 54.68 273.4 0zm0 109.36l0 -54.68 -273.4 0 0 54.68 273.4 0zm562.63 0l0 -109.36 109.35 -164.04 -67.51 0 -69.1 99.89 -68.39 -99.89 -68.39 0 109.36 164.04 0 109.36 54.69 0zm464.3 -273.4l0 273.4 54.68 0 0 -218.71 164.03 0 0 218.71 54.68 0 0 -273.4 -273.4 0z"/>
   <path class="fil1" d="M1431.53 -0l0.19 28.39 11.99 8.2 -0.22 40.96c-38.71,12.24 -72.82,21.75 -104.32,29.1 -0.62,11.15 -0.91,30.19 -1.02,46.32 31.1,-5.8 62.17,-11.81 93.2,-17.73l-0.08 221.07c10.45,5.74 16.39,8.86 25.38,13.77 0.05,0 23.47,-12.71 25.39,-13.77l-0.08 -221.07c31.03,5.92 62.1,11.93 93.19,17.73 -0.11,-16.13 -0.4,-35.16 -1.02,-46.32 -31.51,-7.35 -65.61,-16.86 -104.32,-29.1l-0.23 -40.96 12 -8.2 0.19 -28.39c-16.96,0.19 -33.31,0.19 -50.26,0zm43.49 335.49l-7.09 7.09 -29.63 0 0 -31.63 9.55 -5.52 0 30.07 27.17 0zm100.14 -167.23c-0.13,21.55 -0.09,72.59 -0.08,86.46 0.03,38.78 -47.25,75.63 -79.44,96.94l0.15 -55.13c6.96,-4.42 32.23,-18.41 32.18,-57.02l-0.24 -80.2 47.44 8.95zm-237 0c0.13,21.55 0.1,72.59 0.09,86.46 -0.04,38.78 47.25,75.63 79.44,96.94l-0.16 -55.13c-6.96,-4.42 -32.22,-18.41 -32.18,-57.02l0.24 -80.2 -47.44 8.95z"/>
  </g>
 </g>
</svg>
