<?xml version="1.0" encoding="UTF-8"?>
<!DOCTYPE svg PUBLIC "-//W3C//DTD SVG 1.1//EN" "http://www.w3.org/Graphics/SVG/1.1/DTD/svg11.dtd">
<!-- Creator: CorelDRAW -->
<svg xmlns="http://www.w3.org/2000/svg" xml:space="preserve" width="5.4624mm" height="8.529mm" version="1.1" style="shape-rendering:geometricPrecision; text-rendering:geometricPrecision; image-rendering:optimizeQuality; fill-rule:evenodd; clip-rule:evenodd"
viewBox="0 0 21.41 33.43"
 xmlns:xlink="http://www.w3.org/1999/xlink"
 xmlns:xodm="http://www.corel.com/coreldraw/odm/2003">
 <defs>
  <style type="text/css">
   <![CDATA[
    .fil0 {fill:#A80714}
   ]]>
  </style>
 </defs>
 <g id="Layer_x0020_1">
  <metadata id="CorelCorpID_0Corel-Layer"/>
  <path class="fil0" d="M8.44 0l0.02 2.57 1.08 0.74 -0.02 3.7c-3.5,1.11 -6.58,1.97 -9.42,2.63 -0.06,1.01 -0.08,2.73 -0.09,4.18 2.81,-0.52 5.62,-1.07 8.42,-1.6l-0.01 19.97c0.94,0.52 1.48,0.8 2.29,1.24 0,0 2.12,-1.15 2.29,-1.24l-0.01 -19.97c2.8,0.54 5.61,1.08 8.42,1.6 -0.01,-1.46 -0.04,-3.18 -0.09,-4.18 -2.85,-0.66 -5.93,-1.52 -9.42,-2.63l-0.02 -3.7 1.08 -0.74 0.02 -2.57c-1.53,0.02 -3.01,0.02 -4.54,0zm3.93 30.31l-0.64 0.64 -2.68 0 0 -2.86 0.86 -0.5 0 2.72 2.45 0zm9.05 -15.11c-0.01,1.95 -0.01,6.56 -0.01,7.81 0,3.5 -4.27,6.83 -7.18,8.76l0.01 -4.98c0.63,-0.4 2.91,-1.66 2.91,-5.15l-0.02 -7.25 4.29 0.81zm-21.41 0c0.01,1.95 0.01,6.56 0.01,7.81 -0,3.5 4.27,6.83 7.18,8.76l-0.01 -4.98c-0.63,-0.4 -2.91,-1.66 -2.91,-5.15l0.02 -7.25 -4.29 0.81z"/>
 </g>
</svg>
