<?xml version="1.0" encoding="UTF-8"?>
<!DOCTYPE svg PUBLIC "-//W3C//DTD SVG 1.1//EN" "http://www.w3.org/Graphics/SVG/1.1/DTD/svg11.dtd">
<!-- Creator: CorelDRAW -->
<svg xmlns="http://www.w3.org/2000/svg" xml:space="preserve" width="131.077mm" height="143.226mm" version="1.1" style="shape-rendering:geometricPrecision; text-rendering:geometricPrecision; image-rendering:optimizeQuality; fill-rule:evenodd; clip-rule:evenodd"
viewBox="0 0 5633.22 6155.31"
 xmlns:xlink="http://www.w3.org/1999/xlink"
 xmlns:xodm="http://www.corel.com/coreldraw/odm/2003">
 <defs>
  <style type="text/css">
   <![CDATA[
    .fil0 {fill:white}
   ]]>
  </style>
 </defs>
 <g id="Layer_x0020_1">
  <metadata id="CorelCorpID_0Corel-Layer"/>
  <g id="_2640765874912">
   <path class="fil0" d="M2953.06 5802.92l-1.37 -1835.94 0.01 -530.64 -0.03 -549.14 2407.27 -1198.39 1.74 185.93 -0.02 348.71 0.04 2379.4 -2407.65 1200.07zm-2678.03 -4105.37c82.7,6.73 1039.59,509.88 1202.92,590.17 201.97,99.29 1089.23,559.1 1205.68,597.86l0.49 2913.62 -2410.9 -1197.95 1.81 -2903.7zm1505.06 430.21c126.69,-50.14 293.04,-148.55 421.68,-215.1 146.54,-75.82 280.86,-147.38 424.98,-226.18l1263.03 -663.41c267.08,-136.08 158.19,-124 434.36,10.47 130.59,63.58 793.86,385.67 864.5,438.44 -275.73,164.28 -1321.69,661.07 -1697.76,851.32 -144.75,73.22 -279.23,139.17 -424.55,212.21 -258.88,130.12 -183.14,154.32 -431.8,34.91 -147.28,-70.73 -280.77,-137.77 -425.06,-211.78l-323.41 -161.64c-17.12,-8.32 -32.47,-14 -50.81,-24.4l-55.16 -44.84zm762.58 -1708.3c318.24,-159.12 243.88,-155.17 417.08,-68.31 269.89,135.36 570.05,271.45 825.37,414.08 -53.77,59.15 -698.82,375.39 -828.91,447.17l-1239.97 654.75c-282.5,152.15 -217.08,136.29 -436.6,26.52 -141.65,-70.82 -282.83,-141.41 -424.51,-212.26 -61.88,-30.94 -363.41,-165.72 -407.95,-218.54l2095.5 -1043.42zm3078.79 4305.57c22.89,-71.34 4.97,-2626.22 6.85,-2941.25 0.45,-75.38 8.89,-308.01 -10.98,-361.22 -27.45,-73.54 -134.26,-104.81 -217.93,-146.44 -165.08,-82.14 -319.81,-159.91 -485.15,-242.58l-1960.78 -980.5c-131.34,-66.48 -133.69,-73.08 -267.34,-5l-1708 854.22c-129.98,64.99 -923.5,433.89 -957.49,512.64 -22.29,51.64 -31.34,3236.77 -2.44,3317.8 25.2,70.63 149.12,110.46 218.87,145.39 803.41,402.36 1658.24,815.69 2446.04,1222.98 143.47,74.17 132.48,71.16 277.41,-2.41l2203.36 -1101.75c106.3,-53.15 426.81,-176.08 457.55,-271.89z"/>
   <path class="fil0" d="M810.37 3095.06l265.04 126.51c2.63,-152.28 -18.46,-309.24 56.99,-403.9 70.79,5.78 346.78,155.29 423.07,195.27 123.52,64.75 205.05,236.46 223.75,409.95 39.31,364.78 -149.52,135.97 -346.48,222.94 -134.56,59.41 -219.88,211.86 -219.27,406.9l262.79 126.15c8.51,-141.8 -7.62,-181.91 50.87,-285.62 58.2,-5.11 496.21,127.54 523.07,-365.42 14.04,-257.69 -123.8,-557.87 -248.44,-669.7 -54.91,-49.26 -504.32,-291.9 -608.39,-306.07 -324.37,-44.15 -382.98,303.55 -383,542.99z"/>
   <path class="fil0" d="M1211.96 4664.39c-0.05,58.12 61.04,68.39 113.64,94.23 50.07,24.59 99.06,54.08 152.62,70.02l-0.46 -346.23 -262.75 -131.46 -3.05 313.45z"/>
  </g>
 </g>
</svg>
