<?xml version="1.0" encoding="UTF-8"?>
<!DOCTYPE svg PUBLIC "-//W3C//DTD SVG 1.1//EN" "http://www.w3.org/Graphics/SVG/1.1/DTD/svg11.dtd">
<!-- Creator: CorelDRAW -->
<svg xmlns="http://www.w3.org/2000/svg" xml:space="preserve" width="131.077mm" height="143.226mm" version="1.1" style="shape-rendering:geometricPrecision; text-rendering:geometricPrecision; image-rendering:optimizeQuality; fill-rule:evenodd; clip-rule:evenodd"
viewBox="0 0 3220.44 3518.92"
 xmlns:xlink="http://www.w3.org/1999/xlink"
 xmlns:xodm="http://www.corel.com/coreldraw/odm/2003">
 <defs>
  <style type="text/css">
   <![CDATA[
    .fil0 {fill:#A6050B}
    .fil3 {fill:#B80006}
    .fil2 {fill:#FDFDFD}
    .fil1 {fill:#FEFEFE}
   ]]>
  </style>
 </defs>
 <g id="Layer_x0020_1">
  <metadata id="CorelCorpID_0Corel-Layer"/>
  <path class="fil0" d="M1688.23 3317.46l-0.78 -1049.58 0 -303.36 -0.01 -313.94 1376.21 -685.1 0.99 106.3 -0.01 199.35 0.02 1360.27 -1376.42 686.06zm-1531 -2346.99c47.28,3.85 594.32,291.49 687.69,337.39 115.46,56.76 622.7,319.63 689.27,341.79l0.28 1665.68 -1378.28 -684.85 1.04 -1660.01zm860.42 245.95c72.43,-28.66 167.53,-84.92 241.07,-122.97 83.78,-43.35 160.57,-84.25 242.96,-129.3l722.06 -379.26c152.69,-77.79 90.43,-70.89 248.32,5.99 74.66,36.35 453.84,220.49 494.23,250.65 -157.63,93.92 -755.59,377.93 -970.59,486.69 -82.75,41.86 -159.63,79.56 -242.71,121.32 -148,74.39 -104.7,88.22 -246.86,19.95 -84.2,-40.44 -160.51,-78.76 -243,-121.07l-184.89 -92.41c-9.79,-4.76 -18.56,-8 -29.05,-13.95l-31.53 -25.64zm435.96 -976.61c181.94,-90.97 139.42,-88.71 238.44,-39.05 154.29,77.39 325.89,155.18 471.86,236.72 -30.74,33.82 -399.51,214.61 -473.88,255.64l-708.88 374.31c-161.5,86.98 -124.1,77.91 -249.6,15.16 -80.98,-40.49 -161.69,-80.84 -242.69,-121.34 -35.38,-17.69 -207.76,-94.74 -233.22,-124.94l1197.97 -596.51zm1760.11 2461.44c13.09,-40.78 2.84,-1501.38 3.92,-1681.48 0.26,-43.09 5.08,-176.09 -6.27,-206.51 -15.69,-42.04 -76.76,-59.92 -124.59,-83.72 -94.37,-46.96 -182.83,-91.42 -277.35,-138.68l-1120.95 -560.54c-75.08,-38 -76.43,-41.78 -152.83,-2.86l-976.44 488.35c-74.31,37.15 -527.95,248.05 -547.38,293.07 -12.74,29.52 -17.92,1850.42 -1.39,1896.75 14.4,40.38 85.25,63.15 125.13,83.12 459.3,230.02 947.99,466.32 1398.37,699.16 82.02,42.4 75.74,40.68 158.59,-1.38l1259.64 -629.86c60.77,-30.38 244,-100.66 261.57,-155.44z"/>
  <polygon class="fil1" points="3064.65,2631.4 3064.63,1271.13 3064.64,1071.78 3063.65,965.48 1687.44,1650.58 1687.45,1964.52 1687.45,2267.88 1688.23,3317.46 "/>
  <path class="fil2" d="M694.61 2487.38l150.21 75.16 0.27 197.94c-30.62,-9.11 -58.63,-25.97 -87.25,-40.03 -30.07,-14.77 -64.99,-20.64 -64.97,-53.87l1.74 -179.2zm-231.33 -717.97c0.01,-136.88 33.52,-335.66 218.96,-310.42 59.5,8.1 316.42,146.81 347.81,174.98 71.26,63.93 150.06,235.54 142.03,382.86 -15.36,281.82 -265.76,205.99 -299.03,208.91 -33.43,59.29 -24.22,82.22 -29.08,163.28l-150.23 -72.12c-0.35,-111.5 48.43,-198.66 125.35,-232.62 112.6,-49.72 220.55,81.09 198.08,-127.45 -10.69,-99.18 -57.3,-197.35 -127.92,-234.36 -43.61,-22.86 -201.4,-108.33 -241.87,-111.63 -43.13,54.11 -31.08,143.85 -32.58,230.9l-151.52 -72.33zm-307.09 861.07l1378.28 684.85 -0.28 -1665.68c-66.57,-22.16 -573.81,-285.03 -689.27,-341.79 -93.37,-45.9 -640.42,-333.54 -687.69,-337.39l-1.04 1660.01z"/>
  <path class="fil2" d="M1049.19 1242.05c10.48,5.95 19.26,9.19 29.05,13.95l184.89 92.41c82.49,42.31 158.8,80.64 243,121.07 142.16,68.27 98.86,54.44 246.86,-19.95 83.08,-41.76 159.95,-79.46 242.71,-121.32 215,-108.76 812.96,-392.77 970.59,-486.69 -40.38,-30.17 -419.57,-214.3 -494.23,-250.65 -157.88,-76.88 -95.63,-83.78 -248.32,-5.99l-722.06 379.26c-82.39,45.05 -159.18,85.95 -242.96,129.3 -73.54,38.05 -168.64,94.31 -241.07,122.97l31.53 25.64z"/>
  <path class="fil1" d="M255.64 836.32c25.47,30.2 197.84,107.25 233.22,124.94 81,40.5 161.71,80.85 242.69,121.34 125.5,62.75 88.1,71.82 249.6,-15.16l708.88 -374.31c74.37,-41.04 443.14,-221.83 473.88,-255.64 -145.97,-81.54 -317.56,-159.34 -471.86,-236.72 -99.02,-49.66 -56.5,-51.92 -238.44,39.05l-1197.97 596.51z"/>
  <path class="fil3" d="M463.28 1769.41l151.52 72.33c1.5,-87.06 -10.55,-176.79 32.58,-230.9 40.47,3.3 198.25,88.78 241.87,111.63 70.61,37.02 117.23,135.18 127.92,234.36 22.47,208.54 -85.48,77.73 -198.08,127.45 -76.93,33.97 -125.7,121.12 -125.35,232.62l150.23 72.12c4.86,-81.07 -4.35,-103.99 29.08,-163.28 33.27,-2.92 283.68,72.91 299.03,-208.91 8.03,-147.32 -70.77,-318.93 -142.03,-382.86 -31.39,-28.16 -288.31,-166.88 -347.81,-174.98 -185.44,-25.24 -218.95,173.54 -218.96,310.42z"/>
  <path class="fil3" d="M692.86 2666.58c-0.03,33.22 34.9,39.1 64.97,53.87 28.63,14.06 56.63,30.92 87.25,40.03l-0.27 -197.94 -150.21 -75.16 -1.74 179.2z"/>
 </g>
</svg>
