<?xml version="1.0" encoding="UTF-8"?>
<!DOCTYPE svg PUBLIC "-//W3C//DTD SVG 1.1//EN" "http://www.w3.org/Graphics/SVG/1.1/DTD/svg11.dtd">
<!-- Creator: CorelDRAW -->
<svg xmlns="http://www.w3.org/2000/svg" xml:space="preserve" width="131.077mm" height="143.226mm" version="1.1" style="shape-rendering:geometricPrecision; text-rendering:geometricPrecision; image-rendering:optimizeQuality; fill-rule:evenodd; clip-rule:evenodd"
viewBox="0 0 7577.27 8279.53"
 xmlns:xlink="http://www.w3.org/1999/xlink"
 xmlns:xodm="http://www.corel.com/coreldraw/odm/2003">
 <defs>
  <style type="text/css">
   <![CDATA[
    .fil0 {fill:#A6050B}
   ]]>
  </style>
 </defs>
 <g id="Layer_x0020_1">
  <metadata id="CorelCorpID_0Corel-Layer"/>
  <g id="_2640432925552">
   <path class="fil0" d="M3972.17 7805.54l-1.84 -2469.53 0.01 -713.76 -0.03 -738.65 3238.04 -1611.95 2.34 250.1 -0.03 469.05 0.06 3200.54 -3238.54 1614.21zm-3602.23 -5522.15c111.23,9.06 1398.36,685.85 1618.05,793.84 271.67,133.55 1465.13,752.04 1621.77,804.18l0.65 3919.13 -3242.91 -1611.36 2.44 -3905.78zm2024.46 578.68c170.41,-67.44 394.17,-199.81 567.2,-289.33 197.11,-101.99 377.79,-198.24 571.64,-304.23l1698.91 -892.35c359.26,-183.04 212.78,-166.8 584.26,14.08 175.65,85.53 1067.83,518.77 1162.85,589.75 -370.89,220.98 -1777.81,889.21 -2283.67,1145.11 -194.71,98.49 -375.59,187.2 -571.06,285.45 -348.22,175.03 -246.35,207.58 -580.82,46.95 -198.1,-95.14 -377.66,-185.31 -571.75,-284.86l-435.03 -217.42c-23.03,-11.2 -43.67,-18.83 -68.34,-32.82l-74.2 -60.32zm1025.76 -2297.84c428.07,-214.04 328.04,-208.73 561.01,-91.88 363.03,182.08 766.77,365.12 1110.21,556.98 -72.32,79.57 -939.99,504.94 -1114.98,601.49l-1667.89 880.71c-380,204.66 -291.99,183.32 -587.28,35.67 -190.53,-95.27 -380.44,-190.22 -571.01,-285.51 -83.24,-41.62 -488.82,-222.91 -548.74,-293.96l2818.67 -1403.51zm4141.29 5791.44c30.79,-95.95 6.69,-3532.54 9.22,-3956.29 0.61,-101.39 11.95,-414.31 -14.76,-485.88 -36.92,-98.92 -180.6,-140.98 -293.14,-196.97 -222.04,-110.48 -430.18,-215.1 -652.57,-326.3l-2637.45 -1318.87c-176.66,-89.42 -179.83,-98.3 -359.6,-6.72l-2297.44 1149.02c-174.83,87.42 -1242.2,583.63 -1287.92,689.56 -29.98,69.46 -42.16,4353.79 -3.28,4462.78 33.89,95.01 200.58,148.58 294.4,195.56 1080.67,541.21 2230.5,1097.19 3290.18,1645.04 192.98,99.77 178.2,95.72 373.15,-3.24l2963.75 -1481.97c142.99,-71.49 574.1,-236.85 615.45,-365.72z"/>
   <path class="fil0" d="M1090.04 4163.18l356.51 170.17c3.54,-204.84 -24.83,-415.97 76.66,-543.29 95.21,7.77 466.46,208.88 569.08,262.66 166.14,87.09 275.82,318.07 300.97,551.43 52.88,490.67 -201.12,182.9 -466.06,299.88 -181,79.92 -295.76,284.97 -294.94,547.33l353.48 169.68c11.44,-190.74 -10.24,-244.68 68.42,-384.18 78.29,-6.87 667.46,171.56 703.59,-491.53 18.89,-346.63 -166.52,-750.4 -334.18,-900.82 -73.86,-66.26 -678.36,-392.64 -818.35,-411.7 -436.31,-59.39 -515.15,408.31 -515.18,730.38z"/>
   <path class="fil0" d="M1630.22 6274.1c-0.06,78.17 82.1,91.99 152.86,126.74 67.35,33.08 133.25,72.75 205.29,94.19l-0.62 -465.72 -353.42 -176.83 -4.1 421.63z"/>
  </g>
 </g>
</svg>
