<?xml version="1.0" encoding="UTF-8"?>
<!DOCTYPE svg PUBLIC "-//W3C//DTD SVG 1.1//EN" "http://www.w3.org/Graphics/SVG/1.1/DTD/svg11.dtd">
<!-- Creator: CorelDRAW -->
<svg xmlns="http://www.w3.org/2000/svg" xml:space="preserve" width="126.155mm" height="165.673mm" version="1.1" style="shape-rendering:geometricPrecision; text-rendering:geometricPrecision; image-rendering:optimizeQuality; fill-rule:evenodd; clip-rule:evenodd"
viewBox="0 0 2299.29 3019.54"
 xmlns:xlink="http://www.w3.org/1999/xlink"
 xmlns:xodm="http://www.corel.com/coreldraw/odm/2003">
 <defs>
  <style type="text/css">
   <![CDATA[
    .fil3 {fill:#E61938}
    .fil1 {fill:#F74F69}
    .fil5 {fill:#FA788B}
    .fil2 {fill:#FCB0BB}
    .fil4 {fill:#FF3B58}
    .fil6 {fill:#FF8C9D}
    .fil0 {fill:#FFD4DA}
   ]]>
  </style>
 </defs>
 <g id="Layer_x0020_1">
  <metadata id="CorelCorpID_0Corel-Layer"/>
  <g id="_1708105601760">
   <polygon class="fil0" points="1146.48,0 2297.26,1550.4 1149.64,3019.54 -0,1561.18 "/>
   <path class="fil1" d="M12.27 1580.74l139.9 179.14c72.15,88.66 951.37,1220.82 987.22,1246.32l0 -3.73c-32.47,-79.53 -180.73,-360.47 -234.23,-470.53 -39.8,-81.87 -216.65,-420.59 -232.22,-471.18 19.89,6.5 40.66,18.91 61.95,30.14 22.51,11.87 36.94,21.88 57.6,32.36 41.72,21.17 75.3,41.22 115.61,63.48l231.94 126.75c-2.87,-22.52 -8.21,-25.1 -24.97,-50.44l-91.28 -139.98c-39.3,-62.74 -78.05,-123.24 -118.44,-183.73l-236.16 -367.45 -6.91 476.95c-27.13,-10.74 -445.69,-322.6 -489.37,-354.45l-160.64 -113.64z"/>
   <path class="fil2" d="M1632.25 1070.75l7.17 4.76 563.49 414.62c30,21.25 53.89,41.84 84.11,59.59 -15.23,-37.12 -43.05,-64.18 -66.2,-97.04 -145.7,-206.82 -341.88,-467.42 -493.05,-670.66 -46.88,-63.03 -91.28,-128.21 -138.28,-189.6l-413.95 -563.59c-1.02,-1.15 -2.32,-2.56 -3.36,-3.66l401.2 910.94c16.96,36.93 46.56,95.83 58.88,134.64z"/>
   <path class="fil1" d="M667.02 1068.78c159.13,-75.78 315.07,-178 476.34,-258.75 9.79,-18.64 10.43,-738.24 3.11,-810.02l-58.71 128.62c-44.36,100.3 -413.39,906.22 -420.74,940.16z"/>
   <path class="fil3" d="M1634.8 2047.68l-0.61 6.1c-5.87,44.74 -455.21,912.47 -452.99,924.29 20.68,-13.87 516.49,-652.17 551.1,-694.26l274.59 -349.09c25.9,-33.74 258.63,-321.61 272.75,-350.32 -10.44,-3.54 -65.43,41.94 -77.06,50.96l-567.78 412.31z"/>
   <path class="fil4" d="M1149.67 2310.46l-9.63 3.02 -0.64 688.98 -0 3.73c5.14,13.87 -4.46,4.69 10.24,13.35 14.06,-14.94 23.65,-21.11 31.57,-41.47 -2.22,-11.82 447.12,-879.54 452.99,-924.29 -49.28,12.91 -186.65,98.51 -241.58,128.12 -40.43,21.79 -81.91,43.11 -120.88,65.69 -30.84,17.87 -90.65,52.92 -122.06,62.87z"/>
   <path class="fil1" d="M12.27 1580.74l160.64 113.64c43.68,31.85 462.24,343.72 489.37,354.45l6.91 -476.95c-19.18,-19.82 -107.23,-11.44 -156.09,-11.42 -156.45,0.07 -368.88,-4.33 -513.1,0.72 4.55,21.95 6.21,13.7 12.27,19.55z"/>
   <path class="fil5" d="M1638.29 1559.82l-3.49 487.86 567.78 -412.31c11.63,-9.03 66.62,-54.5 77.06,-50.96 7.62,-6.32 10.75,-9.28 19.64,-18 -4.39,-31.47 1.84,-4.88 -10.61,-16.15 -1.41,1.04 -3.5,1.96 -4.68,2.39 -1.2,0.44 -3.32,1.69 -4.85,2.17 -41.48,13 -540.12,-2.16 -640.86,4.99z"/>
   <path class="fil3" d="M1139.4 3002.46l0.64 -688.98 -231.94 -126.75c-40.31,-22.26 -73.89,-42.31 -115.61,-63.48 -20.65,-10.48 -35.09,-20.49 -57.6,-32.36 -21.29,-11.23 -42.06,-23.63 -61.95,-30.14 15.57,50.59 192.42,389.31 232.22,471.18 53.51,110.06 201.76,391 234.23,470.53z"/>
   <path class="fil4" d="M1638.29 1559.82c100.74,-7.15 599.37,8.01 640.86,-4.99 1.53,-0.48 3.65,-1.72 4.85,-2.17 1.18,-0.44 3.27,-1.35 4.68,-2.39l-1.66 -0.54c-30.21,-17.76 -54.11,-38.35 -84.11,-59.59l-563.49 -414.62 -1.14 484.31z"/>
   <path class="fil6" d="M1149.67 2310.46c31.41,-9.95 91.21,-45 122.06,-62.87 38.97,-22.58 80.45,-43.91 120.88,-65.69 54.93,-29.61 192.3,-115.21 241.58,-128.12l0.61 -6.1 3.49 -487.86 -8.54 1.7 -115.05 183.64c-40.7,62.78 -78.85,123.42 -121.2,187.6l-243.83 377.7z"/>
   <path class="fil1" d="M667.02 1068.78c-17.25,33.6 -7.37,413.48 -7.31,485.85l32.78 -41.14c59.41,-95.74 438.4,-670.3 450.87,-703.46 -161.27,80.75 -317.21,182.98 -476.34,258.75z"/>
   <path class="fil1" d="M1629.74 1561.52l8.54 -1.7 1.14 -484.31 -7.17 -4.76c-31.46,-11.06 -86.95,-43.91 -118.47,-62.01l-357.69 -194.56c22.35,52.79 83.56,132.71 116.45,185.24 41.74,66.68 80.6,123.14 120.83,187.5 38.1,60.97 78.36,120.62 118.57,183.54 23.98,37.52 107.59,157.04 117.8,191.07z"/>
   <path class="fil3" d="M676.97 1036.62c17.15,-46.24 462.94,-995.5 460.69,-1008.31 -21,15.03 -524.56,706.79 -559.72,752.4l-278.89 378.33c-26.3,36.57 -262.67,348.54 -277.01,379.66 10.61,3.83 66.46,-45.45 78.27,-55.23l576.65 -446.84z"/>
   <path class="fil5" d="M673.43 1565.34l3.44 -513.73 0.1 -15 -576.65 446.84c-11.81,9.78 -67.66,59.06 -78.27,55.23 -7.74,6.84 -10.92,10.06 -19.95,19.5 4.46,34.11 -1.86,5.28 10.78,17.5 1.43,-1.13 3.55,-2.12 4.76,-2.6 1.21,-0.48 3.37,-1.83 4.93,-2.35 42.13,-14.09 548.56,2.34 650.87,-5.41z"/>
  </g>
 </g>
</svg>
